<?xml version="1.0" standalone="no"?><!DOCTYPE svg PUBLIC "-//W3C//DTD SVG 1.1//EN" "http://www.w3.org/Graphics/SVG/1.1/DTD/svg11.dtd"><svg t="1559218608243" class="icon" style="" viewBox="0 0 1024 1024" version="1.1" xmlns="http://www.w3.org/2000/svg" p-id="10899" xmlns:xlink="http://www.w3.org/1999/xlink" width="200" height="200"><defs><style type="text/css"></style></defs><path d="M483.988247 171.506532L392.566075 20.696517A29.693921 29.693921 0 0 0 362.213914 0.071675l-261.028586 18.284434a29.840197 29.840197 0 0 0-28.011753 31.814916c0.438826 6.582396 3.364336 11.921451 7.313774 16.675404l136.840707 230.676424c95.079059-103.855587 266.587053-126.089459 266.587053-126.089459M985.932539 31.228351L725.781607 3.874837A29.620784 29.620784 0 0 0 694.844344 23.475751L598.30253 170.92143s170.630342 28.304304 261.979376 135.304814l144.81272-225.776196a28.962544 28.962544 0 0 0 7.898876-16.309715 30.132748 30.132748 0 0 0-27.060963-32.911982m-241.647085 556.65132L665.004147 664.747433l18.796398 108.682678c6.216708 36.495731-14.773823 52.439758-48.197769 34.813563l-98.004568-51.342691-97.93143 51.342691c-32.911982 17.187368-54.487614 2.340408-48.124632-34.813563l18.723261-108.682678-79.500721-76.794624c-26.622136-25.890759-19.162087-50.977003 18.503848-56.389196l109.560331-15.797751 49.002284-98.809083c16.529129-33.131395 42.712439-33.862772 59.534118 0l49.002284 98.735945 109.560331 15.870889c36.788282 5.265917 45.56481 29.986472 18.284435 56.316058M529.845608 221.752157a401.16049 401.16049 0 1 0 0 802.320981 401.16049 401.16049 0 0 0 0-802.320981" p-id="10900" fill="#76a8f0"></path></svg>