<?xml version="1.0" standalone="no"?><!DOCTYPE svg PUBLIC "-//W3C//DTD SVG 1.1//EN" "http://www.w3.org/Graphics/SVG/1.1/DTD/svg11.dtd"><svg t="1558858256833" class="icon" style="" viewBox="0 0 1024 1024" version="1.1" xmlns="http://www.w3.org/2000/svg" p-id="17567" xmlns:xlink="http://www.w3.org/1999/xlink" width="220" height="220"><defs><style type="text/css"></style></defs><path d="M652.8 870.4c0-38.4 12.8-64 25.6-102.4L153.6 768l0-108.8 665.6 0 0 12.8c19.2 0 25.6 0 38.4 0 44.8 0 83.2 12.8 115.2 38.4L972.8 166.4c0-57.6-44.8-102.4-96-102.4l-768 0C44.8 64 0 108.8 0 166.4l0 761.6C0 979.2 44.8 1024 102.4 1024l627.2 0C684.8 992 652.8 934.4 652.8 870.4zM153.6 262.4l665.6 0 0 108.8L153.6 371.2 153.6 262.4zM153.6 460.8l665.6 0 0 108.8L153.6 569.6 153.6 460.8zM857.6 723.2c-83.2 0-153.6 64-153.6 147.2 0 83.2 70.4 147.2 153.6 147.2 83.2 0 153.6-64 153.6-147.2C1011.2 793.6 940.8 723.2 857.6 723.2zM953.6 896l-76.8 0 0 70.4L832 966.4 832 896 768 896l0-44.8L832 851.2l0-76.8 44.8 0 0 76.8 76.8 0L953.6 896z" p-id="17568" fill="#ffffff"></path></svg>