<?xml version="1.0" standalone="no"?><!DOCTYPE svg PUBLIC "-//W3C//DTD SVG 1.1//EN" "http://www.w3.org/Graphics/SVG/1.1/DTD/svg11.dtd"><svg t="1559187860216" class="icon" style="" viewBox="0 0 1000 1000" version="1.1" xmlns="http://www.w3.org/2000/svg" p-id="18471" xmlns:xlink="http://www.w3.org/1999/xlink" width="260" height="260"><defs><style type="text/css"></style></defs><path d="M714.2847 245.5675h-396.65772568646344c-21.9071 0-39.6658 17.758-39.6658 39.6641 0 21.9061 17.7587 39.6641 39.6658 39.6641h396.65772568646344c21.9071 0 39.6658-17.758 39.6658-39.6641C753.9505 263.3245 736.1928 245.5675 714.2847 245.5675zM714.2847 404.2219h-396.65772568646344c-21.9071 0-39.6658 17.76-39.6658 39.6661 0 21.9041 17.7587 39.6641 39.6658 39.6641h396.65772568646344c21.9071 0 39.6658-17.76 39.6658-39.6641C753.9505 421.9819 736.1928 404.2219 714.2847 404.2219zM872.9488 47.247H158.96389896026128c-43.8131 0-79.3315 35.5149-79.3315 79.3282v713.9529399067433c0 43.8133 35.5184 79.3302 79.3315 79.3302h436.32349825510977v-0.06995257215607818c10.5213 0.0979 21.0726-3.8604 29.1005-11.8889l315.9321-315.9188c8.0269-8.0276 11.9854-18.5794 11.8874-29.0993h0.07195423710520109V126.57518202658594C952.2803 82.7619 916.7629 47.247 872.9488 47.247zM634.9552 782.4525V642.2065839360913c0-21.9022 17.7587-39.6621 39.6638-39.6621h140.2508004908878L634.9552 782.4525zM872.9488 523.2183H634.9551685128258c-43.8151 0-79.3335 35.5149-79.3335 79.3262v237.98264776481545H198.6296715289076c-21.9071 0-39.6658-17.758-39.6658-39.6641V166.2392897615416c0-21.9041 17.7587-39.6641 39.6658-39.6641h634.65435982715c21.9051 0 39.6638 17.76 39.6638 39.6641V523.2182580210617zM396.9585 562.8804h-79.3315451372927c-21.9071 0-39.6658 17.76-39.6658 39.6641 0 21.9061 17.7587 39.6621 39.6658 39.6621h79.3315451372927c21.9071 0 39.6658-17.756 39.6658-39.6621C436.6243 580.6403 418.8666 562.8804 396.9585 562.8804z" p-id="18472" fill="#006CFF"></path></svg>