<?xml version="1.0" standalone="no"?><!DOCTYPE svg PUBLIC "-//W3C//DTD SVG 1.1//EN" "http://www.w3.org/Graphics/SVG/1.1/DTD/svg11.dtd"><svg t="1558961992146" class="icon" style="" viewBox="0 0 1024 1024" version="1.1" xmlns="http://www.w3.org/2000/svg" p-id="16442" xmlns:xlink="http://www.w3.org/1999/xlink" width="220" height="220"><defs><style type="text/css"></style></defs><path d="M829.999564 460.381365h64.795749v-332.22659H561.835012v65.341171h221.398436l-185.873338 187.201589c-49.379641-39.266305-111.671359-62.836117-179.091888-62.836117l-3.871167 0.027629c-77.18287 1.01512-149.359726 32.031531-203.222471 87.323835-53.856605 55.298444-82.960457 128.258129-81.945337 205.442022 2.069125 157.254533 131.660622 285.189298 288.883433 285.189298l3.871167-0.02763c77.18901-1.010003 149.365866-32.015158 203.227588-87.312578 53.866838-55.292304 82.965573-128.258129 81.950453-205.435882-0.86981-66.691935-24.736381-128.053468-63.856353-176.677909l186.699146-187.239451v221.230613h-0.005117zM578.796312 763.29842c-41.787732 42.895973-97.777931 66.951855-157.665902 67.738777l-3.02387 0.016373c-121.957633 0-222.48928-99.251491-224.092801-221.252103-0.788969-59.876716 21.792329-116.476805 63.575967-159.376871 41.787732-42.900066 97.777931-66.955948 157.659763-67.743894l3.01773-0.021489c121.972982 0 222.50463 99.256608 224.097917 221.268476 0.794086 59.871599-21.788236 116.471688-63.569827 159.372777l0.001023-0.002046z" p-id="16443" fill="#1296db"></path></svg>