<?xml version="1.0" standalone="no"?><!DOCTYPE svg PUBLIC "-//W3C//DTD SVG 1.1//EN" "http://www.w3.org/Graphics/SVG/1.1/DTD/svg11.dtd"><svg t="1559141817947" class="icon" style="" viewBox="0 0 1024 1024" version="1.1" xmlns="http://www.w3.org/2000/svg" p-id="2138" xmlns:xlink="http://www.w3.org/1999/xlink" width="220" height="220"><defs><style type="text/css"></style></defs><path d="M512 952.046933a440.046933 440.046933 0 1 0 0-880.093866 440.046933 440.046933 0 0 0 0 880.093866zM512 1024a512 512 0 1 1 0-1024 512 512 0 0 1 0 1024z m230.058667-741.9904a35.976533 35.976533 0 0 1 0 50.926933l-410.350934 410.282667a35.976533 35.976533 0 0 1-50.858666-50.7904l410.350933-410.4192a35.976533 35.976533 0 0 1 50.858667 0z m0 460.117333a35.976533 35.976533 0 0 1-50.858667 0L280.849067 331.639467a35.976533 35.976533 0 1 1 50.858666-50.858667l410.350934 410.350933a35.976533 35.976533 0 0 1 0 50.858667z" fill="#ffffff" p-id="2139"></path></svg>