<?xml version="1.0" standalone="no"?><!DOCTYPE svg PUBLIC "-//W3C//DTD SVG 1.1//EN" "http://www.w3.org/Graphics/SVG/1.1/DTD/svg11.dtd"><svg t="1559214959263" class="icon" style="" viewBox="0 0 1024 1024" version="1.1" xmlns="http://www.w3.org/2000/svg" p-id="2730" xmlns:xlink="http://www.w3.org/1999/xlink" width="200" height="200"><defs><style type="text/css"></style></defs><path d="M659.968 68.544c-9.28-3.072-18.688-6.016-28.288-8.576C593.664 49.728 553.856 44.16 512.64 44.16c-17.536 0-34.88 1.088-51.968 3.072-41.792 4.8-81.92 15.104-119.488 30.336l218.048 218.048 19.136 19.136L618.752 355.2c4.352 3.136 8.64 6.464 12.608 9.856 10.688 9.28 20.288 19.712 28.544 31.232L659.904 68.544zM631.424 217.92 630.912 217.472l0.512 0L631.424 217.92z" p-id="2731" fill="#b2cef8"></path><path d="M923.904 299.008c-4.352-8.832-9.024-17.536-13.952-26.112-19.584-34.048-43.84-66.24-72.96-95.296-12.352-12.48-25.472-24-38.912-34.624-32.896-26.176-68.544-47.168-105.92-62.976l0 308.352 0 27.136 0 57.088c0.832 5.312 1.408 10.624 1.856 15.936 1.024 14.08 0.384 28.224-1.856 42.304L923.904 299.008zM798.08 384.512 798.08 383.808l0.32 0.384L798.08 384.512z" p-id="2732" fill="#b2cef8"></path><path d="M947.776 654.08c3.264-9.344 6.144-18.752 8.704-28.16 10.176-38.016 15.872-77.824 15.872-119.04 0-17.6-1.28-34.944-3.2-51.968-4.8-41.792-15.104-81.92-30.336-119.552l-218.048 218.048-19.072 19.136-40.512 40.448c-3.2 4.352-6.4 8.576-9.92 12.48-9.216 10.816-19.712 20.288-31.104 28.608L947.776 654.08zM798.4 625.536l0.512-0.448 0 0.448L798.4 625.536z" p-id="2733" fill="#b2cef8"></path><path d="M714.816 920.32c8.768-4.352 17.472-8.96 26.048-13.888 34.048-19.648 66.176-43.904 95.296-73.024 12.416-12.352 23.936-25.472 34.56-38.848 26.176-32.96 47.232-68.608 63.04-106.048L625.408 688.512 598.4 688.512 541.248 688.512c-5.312 0.896-10.56 1.472-15.936 1.92-14.08 1.088-28.224 0.384-42.24-1.856L714.816 920.32zM629.312 794.56l0.64 0-0.256 0.256L629.312 794.56z" p-id="2734" fill="#b2cef8"></path><path d="M364.032 943.552c9.344 3.136 18.688 5.952 28.288 8.512 37.952 10.304 77.824 15.808 118.976 15.808 17.6 0 34.944-1.024 52.032-3.008 41.728-4.8 81.856-15.104 119.488-30.4l-218.048-218.048-19.136-19.072-40.448-40.512c-4.288-3.136-8.512-6.464-12.544-9.856C381.952 637.76 372.416 627.264 364.032 615.744L364.032 943.552zM392.576 794.112l0.512 0.512L392.576 794.624 392.576 794.112z" p-id="2735" fill="#b2cef8"></path><path d="M99.776 710.848c4.352 8.832 9.024 17.408 13.952 26.048 19.584 34.048 43.776 66.176 72.896 95.296 12.48 12.416 25.536 23.872 38.976 34.624 32.96 26.176 68.672 47.168 105.984 63.04L331.584 621.504 331.584 594.432 331.584 537.28C330.688 532.032 330.112 526.656 329.664 521.408 328.64 507.264 329.28 493.12 331.584 479.104L99.776 710.848zM225.6 625.344l0 0.704L225.28 625.664 225.6 625.344z" p-id="2736" fill="#b2cef8"></path><path d="M76.16 358.208C73.024 367.488 70.144 376.896 67.584 386.432c-10.24 38.016-15.872 77.888-15.872 119.04 0 17.6 1.152 34.944 3.072 52.032 4.8 41.792 15.168 81.92 30.4 119.552L303.232 458.88l19.136-19.136L362.752 399.36C365.952 395.008 369.28 390.784 372.672 386.688c9.216-10.688 19.712-20.224 31.168-28.48L76.16 358.208zM225.536 386.688 225.088 387.136 225.088 386.688 225.536 386.688z" p-id="2737" fill="#b2cef8"></path><path d="M306.944 93.568C298.176 97.92 289.472 102.592 280.96 107.52 246.848 127.104 214.72 151.36 185.6 180.416 173.184 192.832 161.664 205.952 150.976 219.392 124.8 252.288 103.808 288 88 325.376l308.352 0 27.072 0 57.216 0C485.888 324.48 491.136 323.84 496.448 323.456c14.08-1.088 28.288-0.384 42.24 1.92L306.944 93.568zM392.512 219.392 391.808 219.392l0.32-0.32L392.512 219.392z" p-id="2738" fill="#b2cef8"></path></svg>