<?xml version="1.0" standalone="no"?><!DOCTYPE svg PUBLIC "-//W3C//DTD SVG 1.1//EN" "http://www.w3.org/Graphics/SVG/1.1/DTD/svg11.dtd"><svg t="1559218504825" class="icon" style="" viewBox="0 0 1024 1024" version="1.1" xmlns="http://www.w3.org/2000/svg" p-id="8655" xmlns:xlink="http://www.w3.org/1999/xlink" width="200" height="200"><defs><style type="text/css"></style></defs><path d="M1007.616 936.96h-49.92V316.672c0-16.64-8.704-32-23.296-40.448L680.448 128c-14.336-8.448-32.512-8.448-46.848-0.256-14.336 8.448-23.552 23.808-23.552 40.448v768.256H556.8v-889.6c0-15.616-7.936-30.464-21.248-39.168-13.312-8.448-29.696-9.984-44.288-4.096L94.72 174.08a47.1 47.1 0 0 0-28.416 43.264V936.96h-49.92C7.168 936.96 0 944.384 0 953.344v54.016c0 9.216 7.424 16.384 16.384 16.384h990.976c9.216 0 16.384-7.424 16.384-16.384v-54.016c0.512-9.216-6.912-16.384-16.128-16.384zM273.92 879.616c0 9.216-7.424 16.384-16.384 16.384H204.8c-9.216 0-16.384-7.424-16.384-16.384V826.88c0-9.216 7.424-16.384 16.384-16.384h52.736c9.216 0 16.384 7.424 16.384 16.384v52.736z m0-132.608c0 9.216-7.424 16.384-16.384 16.384H204.8c-9.216 0-16.384-7.424-16.384-16.384v-52.736c0-9.216 7.424-16.384 16.384-16.384h52.736c9.216 0 16.384 7.424 16.384 16.384v52.736z m0-132.864c0 9.216-7.424 16.384-16.384 16.384H204.8c-9.216 0-16.384-7.424-16.384-16.384v-52.736c0-9.216 7.424-16.384 16.384-16.384h52.736c9.216 0 16.384 7.424 16.384 16.384v52.736z m0-132.864c0 9.216-7.424 16.384-16.384 16.384H204.8c-9.216 0-16.384-7.424-16.384-16.384v-52.736c0-9.216 7.424-16.384 16.384-16.384h52.736c9.216 0 16.384 7.424 16.384 16.384v52.736z m0-132.608c0 9.216-7.424 16.384-16.384 16.384H204.8c-9.216 0-16.384-7.424-16.384-16.384v-52.736c0-9.216 7.424-16.384 16.384-16.384h52.736c9.216 0 16.384 7.424 16.384 16.384v52.736z m160 530.944c0 9.216-7.424 16.384-16.384 16.384H364.8c-9.216 0-16.384-7.424-16.384-16.384V826.88c0-9.216 7.424-16.384 16.384-16.384h52.48c9.216 0 16.384 7.424 16.384 16.384v52.736z m0-132.608c0 9.216-7.424 16.384-16.384 16.384H364.8c-9.216 0-16.384-7.424-16.384-16.384v-52.736c0-9.216 7.424-16.384 16.384-16.384h52.48c9.216 0 16.384 7.424 16.384 16.384v52.736z m0-132.864c0 9.216-7.424 16.384-16.384 16.384H364.8c-9.216 0-16.384-7.424-16.384-16.384v-52.736c0-9.216 7.424-16.384 16.384-16.384h52.48c9.216 0 16.384 7.424 16.384 16.384v52.736z m0-132.864c0 9.216-7.424 16.384-16.384 16.384H364.8c-9.216 0-16.384-7.424-16.384-16.384v-52.736c0-9.216 7.424-16.384 16.384-16.384h52.48c9.216 0 16.384 7.424 16.384 16.384v52.736z m0-132.608c0 9.216-7.424 16.384-16.384 16.384H364.8c-9.216 0-16.384-7.424-16.384-16.384v-52.736c0-9.216 7.424-16.384 16.384-16.384h52.48c9.216 0 16.384 7.424 16.384 16.384v52.736z m0-132.864c0 9.216-7.424 16.384-16.384 16.384H364.8c-9.216 0-16.384-7.424-16.384-16.384v-52.736c0-9.216 7.424-16.384 16.384-16.384h52.48c9.216 0 16.384 7.424 16.384 16.384v52.736z m391.168 663.808c0 9.216-7.424 16.384-16.384 16.384h-52.736c-9.216 0-16.384-7.424-16.384-16.384V826.88c0-9.216 7.424-16.384 16.384-16.384h52.736c9.216 0 16.384 7.424 16.384 16.384v52.736z m0-132.608c0 9.216-7.424 16.384-16.384 16.384h-52.736c-9.216 0-16.384-7.424-16.384-16.384v-52.736c0-9.216 7.424-16.384 16.384-16.384h52.736c9.216 0 16.384 7.424 16.384 16.384v52.736z m0-132.864c0 9.216-7.424 16.384-16.384 16.384h-52.736c-9.216 0-16.384-7.424-16.384-16.384v-52.736c0-9.216 7.424-16.384 16.384-16.384h52.736c9.216 0 16.384 7.424 16.384 16.384v52.736z m0-132.864c0 9.216-7.424 16.384-16.384 16.384h-52.736c-9.216 0-16.384-7.424-16.384-16.384v-52.736c0-9.216 7.424-16.384 16.384-16.384h52.736c9.216 0 16.384 7.424 16.384 16.384v52.736z m0-132.608c0 9.216-7.424 16.384-16.384 16.384h-52.736c-9.216 0-16.384-7.424-16.384-16.384v-52.736c0-9.216 7.424-16.384 16.384-16.384h52.736c9.216 0 16.384 7.424 16.384 16.384v52.736z" p-id="8656" fill="#76a8f0"></path></svg>