<?xml version="1.0" standalone="no"?><!DOCTYPE svg PUBLIC "-//W3C//DTD SVG 1.1//EN" "http://www.w3.org/Graphics/SVG/1.1/DTD/svg11.dtd"><svg t="1558858062056" class="icon" style="" viewBox="0 0 1024 1024" version="1.1" xmlns="http://www.w3.org/2000/svg" p-id="14812" xmlns:xlink="http://www.w3.org/1999/xlink" width="270" height="270"><defs><style type="text/css"></style></defs><path d="M983.04 921.6h-47.786667V286.72c0-6.826667-3.413333-13.653333-10.24-17.066667l-279.893333-146.773333c-17.066667-6.826667-30.72 3.413333-30.72 17.066667V921.6h-34.133333V30.72c0-13.653333-13.653333-23.893333-27.306667-17.066667L126.293333 163.84c-6.826667 3.413333-13.653333 10.24-13.653333 20.48V921.6H40.96c-10.24 0-20.48 10.24-20.48 23.893333V989.866667c0 13.653333 10.24 23.893333 20.48 23.893333h938.666667c10.24 0 20.48-10.24 20.48-23.893333v-44.373334c0-13.653333-6.826667-23.893333-17.066667-23.893333zM713.386667 317.44c0-17.066667 13.653333-27.306667 30.72-27.306667h51.2c17.066667 0 30.72 13.653333 30.72 27.306667v20.48c0 17.066667-13.653333 27.306667-30.72 27.306667h-51.2c-17.066667 0-30.72-13.653333-30.72-27.306667v-20.48z m0 163.84c0-17.066667 13.653333-27.306667 30.72-27.306667h51.2c17.066667 0 30.72 13.653333 30.72 27.306667v20.48c0 17.066667-13.653333 27.306667-30.72 27.306667h-51.2c-17.066667 0-30.72-13.653333-30.72-27.306667v-20.48z m0 150.186667c0-17.066667 13.653333-27.306667 30.72-27.306667h51.2c17.066667 0 30.72 13.653333 30.72 27.306667v17.066666c0 17.066667-13.653333 27.306667-30.72 27.306667h-51.2c-17.066667 0-30.72-13.653333-30.72-27.306667v-17.066666z m0 150.186666c0-17.066667 13.653333-27.306667 30.72-27.306666h51.2c17.066667 0 30.72 13.653333 30.72 27.306666v20.48c0 17.066667-13.653333 27.306667-30.72 27.306667h-51.2c-17.066667 0-30.72-13.653333-30.72-27.306667v-20.48zM378.88 174.08c0-17.066667 13.653333-27.306667 30.72-27.306667h51.2c17.066667 0 30.72 13.653333 30.72 27.306667v20.48c0 17.066667-13.653333 27.306667-30.72 27.306667H409.6c-17.066667 0-30.72-13.653333-30.72-27.306667v-20.48z m0 150.186667c0-17.066667 13.653333-27.306667 30.72-27.306667h51.2c17.066667 0 30.72 13.653333 30.72 27.306667v20.48c0 17.066667-13.653333 27.306667-30.72 27.306666H409.6c-17.066667 0-30.72-13.653333-30.72-27.306666v-20.48z m0 160.426666c0-17.066667 13.653333-27.306667 30.72-27.306666h51.2c17.066667 0 30.72 13.653333 30.72 27.306666v20.48c0 17.066667-13.653333 27.306667-30.72 27.306667H409.6c-17.066667 0-30.72-13.653333-30.72-27.306667v-20.48z m0 150.186667c0-17.066667 13.653333-27.306667 30.72-27.306667h51.2c17.066667 0 30.72 13.653333 30.72 27.306667v20.48c0 17.066667-13.653333 27.306667-30.72 27.306667H409.6c-17.066667 0-30.72-13.653333-30.72-27.306667v-20.48z m0 150.186667c0-17.066667 13.653333-27.306667 30.72-27.306667h51.2c17.066667 0 30.72 13.653333 30.72 27.306667v20.48c0 17.066667-13.653333 27.306667-30.72 27.306666H409.6c-17.066667 0-30.72-13.653333-30.72-27.306666V785.066667zM204.8 324.266667c0-17.066667 13.653333-30.72 30.72-30.72h51.2c17.066667 0 30.72 13.653333 30.72 27.306666v20.48c0 17.066667-13.653333 27.306667-30.72 27.306667H235.52c-17.066667 0-30.72-13.653333-30.72-27.306667v-17.066666z m0 160.426666c0-17.066667 13.653333-27.306667 30.72-27.306666h51.2c17.066667 0 30.72 13.653333 30.72 27.306666v20.48c0 17.066667-13.653333 27.306667-30.72 27.306667H235.52c-17.066667 0-30.72-13.653333-30.72-27.306667v-20.48z m0 150.186667c0-17.066667 13.653333-27.306667 30.72-27.306667h51.2c17.066667 0 30.72 13.653333 30.72 27.306667v20.48c0 17.066667-13.653333 27.306667-30.72 27.306667H235.52c-17.066667 0-30.72-13.653333-30.72-30.72v-17.066667zM204.8 785.066667c0-17.066667 13.653333-27.306667 30.72-27.306667h51.2c17.066667 0 30.72 13.653333 30.72 27.306667v20.48c0 17.066667-13.653333 27.306667-30.72 27.306666H235.52c-17.066667 0-30.72-13.653333-30.72-30.72V785.066667z" fill="#31799f" p-id="14813"></path></svg>