<?xml version="1.0" standalone="no"?><!DOCTYPE svg PUBLIC "-//W3C//DTD SVG 1.1//EN" "http://www.w3.org/Graphics/SVG/1.1/DTD/svg11.dtd"><svg t="1559188504650" class="icon" style="" viewBox="0 0 1024 1024" version="1.1" xmlns="http://www.w3.org/2000/svg" p-id="17136" xmlns:xlink="http://www.w3.org/1999/xlink" width="200" height="200"><defs><style type="text/css"></style></defs><path d="M512 791.3472c-5.2736 0-10.5728-1.0752-15.488-3.2512l-409.6-180.7104c-19.4048-8.5504-28.1856-31.232-19.6352-50.6368 8.5504-19.3792 31.2576-28.1856 50.6368-19.6352L512 710.9632l394.112-173.8752c19.4048-8.5504 42.0864 0.256 50.6368 19.6352 8.5504 19.4048-0.2304 42.0864-19.6352 50.6368l-409.6 180.7104C522.5728 790.2464 517.2736 791.3472 512 791.3472z" p-id="17137" fill="#8a8a8a"></path><path d="M512 490.1632c-5.2736 0-10.5728-1.0752-15.488-3.2512l-409.6-180.7104c-19.4048-8.5504-28.1856-31.232-19.6352-50.6368s31.2576-28.1856 50.6368-19.6352L512 409.7792l394.112-173.8752c19.4048-8.5504 42.0864 0.2304 50.6368 19.6352 8.5504 19.4048-0.2304 42.0864-19.6352 50.6368l-409.6 180.7104C522.5728 489.088 517.2736 490.1632 512 490.1632z" p-id="17138" fill="#8a8a8a"></path></svg>