<?xml version="1.0" standalone="no"?><!DOCTYPE svg PUBLIC "-//W3C//DTD SVG 1.1//EN" "http://www.w3.org/Graphics/SVG/1.1/DTD/svg11.dtd"><svg t="1559050676835" class="icon" style="" viewBox="0 0 1024 1024" version="1.1" xmlns="http://www.w3.org/2000/svg" p-id="11740" xmlns:xlink="http://www.w3.org/1999/xlink" width="200" height="200"><defs><style type="text/css"></style></defs><path d="M924.8 337.6c-22.6-53.4-54.9-101.3-96-142.4-41.1-41.1-89-73.4-142.4-96C631.1 75.8 572.5 64 512 64S392.9 75.8 337.6 99.2c-53.4 22.6-101.3 54.9-142.4 96-41.1 41.1-73.4 89-96 142.4C75.8 392.9 64 451.5 64 512s11.8 119.1 35.2 174.4c22.6 53.4 54.9 101.3 96 142.4 41.1 41.1 89 73.4 142.4 96C392.9 948.2 451.5 960 512 960s119.1-11.8 174.4-35.2c53.4-22.6 101.3-54.9 142.4-96 41.1-41.1 73.4-89 96-142.4C948.2 631.1 960 572.5 960 512s-11.8-119.1-35.2-174.4z m-166.2 133l-224 224c-12.5 12.5-32.8 12.5-45.3 0l-224-224c-12.5-12.5-12.5-32.8 0-45.3s32.8-12.5 45.3 0L512 626.7l201.4-201.4c6.2-6.2 14.4-9.4 22.6-9.4s16.4 3.1 22.6 9.4c12.5 12.6 12.5 32.8 0 45.3z" p-id="11741" fill="#515151"></path></svg>