<?xml version="1.0" standalone="no"?><!DOCTYPE svg PUBLIC "-//W3C//DTD SVG 1.1//EN" "http://www.w3.org/Graphics/SVG/1.1/DTD/svg11.dtd"><svg t="1559046662888" class="icon" style="" viewBox="0 0 1024 1024" version="1.1" xmlns="http://www.w3.org/2000/svg" p-id="4792" xmlns:xlink="http://www.w3.org/1999/xlink" width="220" height="220"><defs><style type="text/css"></style></defs><path d="M802.7136 906.738726l-590.345481 0c-54.33837 0-98.389333-44.081304-98.389333-98.451911L113.978785 217.550696c0-54.378193 44.6976-103.114904 99.037867-103.114904l396.155259 0 0 49.519881-396.155259 0c-27.168237 0-49.842252 26.409719-49.842252 53.596919l0 590.736119c0 27.185304 22.025481 49.227852 49.193719 49.227852l590.345481 0c27.168237 0 54.050133-22.622815 54.050133-49.810015L856.763733 411.553185l49.519881 0 0 396.14957C906.281719 862.075259 857.053867 906.738726 802.7136 906.738726zM508.681481 668.173274c-7.192652 7.198341-16.200059 10.797511-25.486222 12.606578l-215.3984 106.545304c-24.242252 11.256415-43.65843-10.484622-34.724978-34.747733l106.475141-215.542519c1.805274-9.291852 5.404444-18.303052 12.597096-25.501393l382.651733-382.903941c19.211378-19.226548 50.359941-19.226548 69.569422 0l86.966044 87.022933c19.213274 19.222756 19.213274 50.39597 0 69.618726L508.681481 668.173274zM280.183467 722.807467c-5.628207 11.349333 5.241363 23.005867 17.362489 17.373867l133.010015-80.566044-69.861452-69.906963L280.183467 722.807467zM404.320711 563.746133l52.182281 52.216415c9.602844 9.612326-15.22157-15.232948 17.390933 17.402311l278.290963-278.474904-87.586133-86.402844-277.668978 277.854815C396.168533 555.58637 394.714074 554.135704 404.320711 563.746133zM839.150933 233.058607l-52.178489-52.216415c-9.604741-9.612326-25.180919-9.612326-34.785659 0l-50.934519 50.964859 85.716385 88.270696 52.182281-52.216415C848.75757 258.250904 848.75757 242.670933 839.150933 233.058607z" p-id="4793" fill="#858585"></path></svg>