<?xml version="1.0" standalone="no"?><!DOCTYPE svg PUBLIC "-//W3C//DTD SVG 1.1//EN" "http://www.w3.org/Graphics/SVG/1.1/DTD/svg11.dtd"><svg t="1558865631371" class="icon" style="" viewBox="0 0 1024 1024" version="1.1" xmlns="http://www.w3.org/2000/svg" p-id="18924" xmlns:xlink="http://www.w3.org/1999/xlink" width="220" height="220"><defs><style type="text/css"></style></defs><path d="M945.92 351.146667s-18.346667 8.533333-47.36 21.333333v129.706667l30.72 30.72-42.666667 42.666666-42.666666-42.666666 30.72-30.72v-118.613334c-93.866667 42.666667-250.88 113.493333-288.853334 130.56-45.226667 20.053333-55.466667 19.626667-73.813333 19.626667-18.346667 0-28.16 0.426667-73.813333-19.626667-55.466667-24.32-360.106667-162.56-360.106667-162.56s-22.613333-13.226667 0-23.466666S456.533333 157.013333 456.533333 157.013333 495.786667 138.666667 512 138.666667c16.213333 0 55.04 18.346667 55.04 18.346666s356.266667 160.426667 378.453333 171.093334c22.613333 9.813333 0.426667 23.04 0.426667 23.04zM512 612.693333c-18.346667 0-28.16 0.426667-73.813333-19.626666-27.733333-12.373333-116.48-52.48-199.253334-90.026667v272.64c82.773333 37.12 171.946667 77.653333 199.253334 90.026667 45.226667 20.053333 55.466667 19.626667 73.813333 19.626666 18.346667 0 28.16 0.426667 73.813333-19.626666 27.733333-12.373333 116.48-52.48 199.253334-90.026667v-272.64c-82.773333 37.12-171.946667 77.653333-199.253334 90.026667-45.653333 20.053333-55.466667 19.626667-73.813333 19.626666z" fill="#98d4f5" p-id="18925"></path></svg>