<?xml version="1.0" standalone="no"?><!DOCTYPE svg PUBLIC "-//W3C//DTD SVG 1.1//EN" "http://www.w3.org/Graphics/SVG/1.1/DTD/svg11.dtd"><svg t="1558865131063" class="icon" style="" viewBox="0 0 1024 1024" version="1.1" xmlns="http://www.w3.org/2000/svg" p-id="15451" xmlns:xlink="http://www.w3.org/1999/xlink" width="220" height="220"><defs><style type="text/css"></style></defs><path d="M1022.634667 225.962667c0 28.808533-9.557333 57.5488-28.740267 86.357333-19.182933 28.740267-41.5744 51.131733-70.314667 70.314667-143.837867 98.986667-233.2672 159.744-268.424533 185.344a120.832 120.832 0 0 1-25.6 15.9744c-12.765867 9.557333-22.391467 15.9744-31.9488 22.3232l-28.740267 19.182933c-9.557333 6.417067-22.391467 12.834133-32.017066 15.9744-9.557333 3.208533-19.114667 6.417067-28.672 6.417067-9.6256 0-19.2512-3.208533-28.808534-6.417067-12.765867-3.140267-22.391467-9.557333-31.9488-15.9744l-28.808533-19.114667c-9.557333-6.417067-19.114667-12.834133-31.9488-22.391466-12.765867-9.557333-19.114667-15.9744-25.531733-15.9744-51.2-35.157333-99.054933-70.314667-150.186667-105.472-63.965867-44.714667-105.472-73.5232-118.237867-79.872a318.122667 318.122667 0 0 1-60.757333-67.1744C9.557333 286.788267 0 261.188267 0 238.7968c0-31.9488 6.417067-54.340267 22.391467-73.5232C38.365867 146.158933 60.689067 136.533333 89.429333 136.533333h840.430934c25.6 0 44.782933 9.557333 63.965866 25.6 19.114667 15.9744 28.740267 38.2976 28.740267 63.8976z m0 166.229333v453.768533c0 25.6-9.557333 47.991467-25.6 63.965867-19.114667 19.114667-38.2976 25.531733-63.8976 25.531733H92.706133c-25.6 0-47.991467-9.557333-63.965866-25.531733-19.114667-19.182933-25.531733-38.365867-25.531734-63.965867V392.192c15.9744 19.114667 35.157333 35.157333 57.480534 51.131733 137.4208 92.706133 233.335467 159.744 284.4672 198.109867 15.9744 12.834133 35.157333 25.6 54.340266 38.365867 12.765867 9.557333 31.9488 19.182933 54.272 28.740266 22.391467 9.557333 44.782933 12.834133 63.965867 12.834134 19.114667 0 41.506133-3.208533 63.8976-12.834134 22.391467-9.557333 41.506133-19.114667 54.340267-28.672 19.114667-12.834133 35.157333-25.6 54.340266-38.434133 63.8976-47.9232 159.744-111.8208 284.398934-198.109867 12.765867-15.9744 31.9488-31.9488 47.9232-51.131733z" p-id="15452" fill="#98d4f5"></path></svg>