<?xml version="1.0" standalone="no"?><!DOCTYPE svg PUBLIC "-//W3C//DTD SVG 1.1//EN" "http://www.w3.org/Graphics/SVG/1.1/DTD/svg11.dtd"><svg t="1559188882958" class="icon" style="" viewBox="0 0 1024 1024" version="1.1" xmlns="http://www.w3.org/2000/svg" p-id="20638" xmlns:xlink="http://www.w3.org/1999/xlink" width="200" height="200"><defs><style type="text/css"></style></defs><path d="M512 0.346901c-282.123472 0-511.653099 229.525534-511.653099 511.653099s229.529627 511.653099 511.653099 511.653099 511.653099-229.525534 511.653099-511.653099S794.123472 0.346901 512 0.346901zM512 967.250508c-251.02622 0-455.250508-204.223265-455.250508-455.250508S260.972756 56.749492 512 56.749492s455.250508 204.223265 455.250508 455.250508S763.02622 967.250508 512 967.250508z" p-id="20639"></path><path d="M747.619322 276.376585c-18.868743-18.876929-49.494251-18.876929-68.362994 0L512 443.632913 344.742648 276.376585c-18.868743-18.876929-49.494251-18.876929-68.362994 0-18.885116 18.881023-18.885116 49.490158 0 68.37118l167.252235 167.252235L276.379655 679.252235c-18.885116 18.881023-18.885116 49.490158 0 68.37118 9.434883 9.438976 21.811772 14.159488 34.181497 14.159488s24.746614-4.721535 34.181497-14.159488l167.256328-167.256328 167.256328 167.256328c9.434883 9.438976 21.811772 14.159488 34.181497 14.159488s24.746614-4.721535 34.181497-14.159488c18.885116-18.881023 18.885116-49.490158 0-68.37118L580.367087 512l167.252235-167.252235C766.504438 325.865719 766.504438 295.256584 747.619322 276.376585z" p-id="20640"></path></svg>