<?xml version="1.0" standalone="no"?><!DOCTYPE svg PUBLIC "-//W3C//DTD SVG 1.1//EN" "http://www.w3.org/Graphics/SVG/1.1/DTD/svg11.dtd"><svg t="1559188148294" class="icon" style="" viewBox="0 0 1082 1024" version="1.1" xmlns="http://www.w3.org/2000/svg" p-id="25030" xmlns:xlink="http://www.w3.org/1999/xlink" width="211.328125" height="200"><defs><style type="text/css"></style></defs><path d="M1079.079745 800.402665a85.649149 85.649149 0 0 0-12.506291-31.07624 72.3849 72.3849 0 0 0-24.254627-22.738712 88.301999 88.301999 0 0 0-37.897853-10.990378 56.088823 56.088823 0 0 0-31.07624 6.821614 158.792006 158.792006 0 0 0-26.528497 18.19097 227.387121 227.387121 0 0 0-25.770541 27.286454 200.858623 200.858623 0 0 0-31.076239-29.181347l-14.780163-9.853442a90.196891 90.196891 0 0 0-16.296077-7.958549 85.27017 85.27017 0 0 0-17.433013-4.547743 50.025167 50.025167 0 0 0-17.811991 0 92.470762 92.470762 0 0 0-31.455218 12.506292 86.786084 86.786084 0 0 0-23.496669 22.359734 95.502591 95.502591 0 0 0-14.401185 29.939304 113.69356 113.69356 0 0 0-4.168764 36.002961 104.219097 104.219097 0 0 0 7.579571 37.897853 178.877868 178.877868 0 0 0 16.675056 31.455218 230.418949 230.418949 0 0 0 20.843819 26.528498q10.990377 12.127313 20.464841 21.222798t29.939304 27.286454a351.69208 351.69208 0 0 0 28.802369 22.359734 192.142117 192.142117 0 0 0 25.012583 14.780163 40.929682 40.929682 0 0 0 18.569948 5.305699 48.888231 48.888231 0 0 0 18.569948-5.684678 219.049593 219.049593 0 0 0 26.528498-14.780163 341.080681 341.080681 0 0 0 30.697261-22.359733 367.2302 367.2302 0 0 0 30.697261-28.044412 277.412287 277.412287 0 0 0 18.948927-22.359733 198.205774 198.205774 0 0 0 17.433013-26.907476 178.49889 178.49889 0 0 0 13.264248-31.07624 143.632865 143.632865 0 0 0 6.442635-35.245004 145.148779 145.148779 0 0 0-1.515914-37.139896z" p-id="25031" fill="#006CFF"></path><path d="M723.976858 963.742413a367.988157 367.988157 0 0 1-33.350111-42.445596 285.749815 285.749815 0 0 1-26.528497-49.646188 166.371577 166.371577 0 0 1-12.506292-57.604737 181.909697 181.909697 0 0 1 6.442635-57.225759 151.591414 151.591414 0 0 1 22.738713-47.751295 138.706144 138.706144 0 0 1 37.897853-35.623982 147.42265 147.42265 0 0 1 48.130274-19.327906 537.391562 537.391562 0 0 0-73.521836-48.888231 341.080681 341.080681 0 1 0-435.825314 0A475.997039 475.997039 0 0 0 0.127858 992.92376a27.665433 27.665433 0 0 0 27.665433 30.318283h757.957069c-9.095485-8.337528-18.569948-16.296077-27.665433-25.012583s-22.359734-21.601776-34.108069-34.487047z" p-id="25032" fill="#006CFF"></path></svg>