<?xml version="1.0" standalone="no"?><!DOCTYPE svg PUBLIC "-//W3C//DTD SVG 1.1//EN" "http://www.w3.org/Graphics/SVG/1.1/DTD/svg11.dtd"><svg t="1559199896852" class="icon" style="" viewBox="0 0 1024 1024" version="1.1" xmlns="http://www.w3.org/2000/svg" p-id="3677" xmlns:xlink="http://www.w3.org/1999/xlink" width="200" height="200"><defs><style type="text/css"></style></defs><path d="M839.88992 607.62624c-41.27232 0.42496-69.90848 20.30592-88.15104 42.75712-17.90976-22.73792-46.59712-42.75712-88.91904-42.75712-27.96544 0-51.18976 9.05216-69.00224 26.9568-32.60928 32.74752-33.28 82.0736-32.94208 83.60448-0.8192 4.98688-17.66912 123.4432 180.28032 222.08512a23.97696 23.97696 0 0 0 10.6752 2.53952 23.7056 23.7056 0 0 0 11.20256-2.83136c119.71072-63.5392 181.95968-140.48768 180.03968-224.28672 0.05632-43.43296-27.09504-108.07296-103.18336-108.06784z m-88.39168 284.19072c-152.2688-79.91808-143.74912-162.80576-143.03232-169.84576-0.0512-8.81152 3.39968-37.59104 19.34336-53.58592 8.61696-8.66304 20.06528-12.88704 35.05664-12.88704 50.70336 0 63.72864 46.3104 64.9728 51.4304a23.87456 23.87456 0 0 0 22.79424 18.39104c10.48064-1.152 20.62848-6.9888 23.59808-17.47968 0.62464-2.10432 15.27296-51.80928 66.99008-52.34176 53.44256 0 54.016 57.74848 54.06208 63.02208 1.34656 59.61216-49.59744 120.8576-143.78496 173.29664zM751.68768 342.06208c0-145.18272-118.12864-263.36256-263.36256-263.36256S224.96768 196.82816 224.96768 342.06208c0 102.51776 58.99776 191.34464 144.70656 234.81856-157.92128 50.6112-288.35328 194.02752-288.35328 339.78368 0 13.21472 10.7264 23.94624 23.94112 23.94624s23.94112-10.73152 23.94112-23.94624c0-154.18368 181.23776-311.2448 359.12704-311.2448 145.1776 0 263.35744-118.12864 263.35744-263.35744z m-263.35744 215.48032c-118.79936 0-215.4752-96.68096-215.4752-215.48032s96.67584-215.4752 215.4752-215.4752 215.48032 96.67584 215.48032 215.4752-96.68096 215.48032-215.48032 215.48032z" p-id="3678" fill="#006CFF"></path></svg>