<?xml version="1.0" standalone="no"?><!DOCTYPE svg PUBLIC "-//W3C//DTD SVG 1.1//EN" "http://www.w3.org/Graphics/SVG/1.1/DTD/svg11.dtd"><svg t="1558962130825" class="icon" style="" viewBox="0 0 1024 1024" version="1.1" xmlns="http://www.w3.org/2000/svg" p-id="17359" xmlns:xlink="http://www.w3.org/1999/xlink" width="220" height="220"><defs><style type="text/css"></style></defs><path d="M596.812704 51.924854c-209.712899 0-379.71991 170.007011-379.71991 379.718951 0 88.10427 30.009528 169.196824 80.360989 233.623491-13.966861 13.930427-28.259715 28.185888-42.594757 42.482577-45.75976-45.75209-91.601978-91.584719-133.333813-133.291625-0.063281-0.063281-0.121768-0.131356-0.186007-0.194637-0.049858-0.049858-0.101633-0.094921-0.152449-0.14382-0.206142-0.206142-0.41612-0.415161-0.621303-0.620345l-0.017258 0.019176c-17.14433-16.209498-44.177738-15.876794-60.89636 0.95976-16.975581 17.093513-16.880659 44.712749 0.213813 61.689288 1.321228 1.31164 2.711491 2.509184 4.148734 3.617558 40.7203 40.695371 85.083086 85.046652 129.343281 129.300135-27.112989 27.039161-52.72833 52.588345-74.602427 74.413543 0.008629 0.012464 0.019176 0.024929 0.026846 0.037393-0.377768 0.354757-0.757453 0.705678-1.124674 1.076734-16.975581 17.093513-16.8797 44.713708 0.214772 61.68833 17.092554 16.976539 44.71179 16.878742 61.687371-0.212854 1.332734-1.341363 2.546577-2.754637 3.669333-4.214891 21.189513-21.143491 45.685933-45.57567 71.553438-71.373184 45.050247 45.042577 88.08797 88.070712 124.877184 124.836914 0.018217-0.010547 0.037393-0.02397 0.054652-0.034517 0.505288 0.556105 1.027835 1.102622 1.566682 1.638592 17.093513 16.975581 44.71179 16.8797 61.687371-0.214772 16.975581-17.093513 16.880659-44.710831-0.212854-61.687371-1.358622-1.348075-2.789154-2.577258-4.269543-3.709603-36.180375-36.159281-78.239161-78.209438-122.202127-122.165693 14.164375-14.126022 28.291356-28.21561 42.093303-41.982082 65.178367 52.649708 148.124285 84.180854 238.435715 84.180854 209.71194 0 379.718951-170.006052 379.718951-379.717993S806.524644 51.924854 596.812704 51.924854zM596.812704 730.831101c-165.238891 0-299.189213-133.951281-299.189213-299.187296 0-165.237933 133.950322-299.189213 299.189213-299.189213 165.236974 0 299.188255 133.951281 299.188255 299.189213C896.000959 596.87982 762.049678 730.831101 596.812704 730.831101z" p-id="17360" fill="#d4237a"></path></svg>