<?xml version="1.0" standalone="no"?><!DOCTYPE svg PUBLIC "-//W3C//DTD SVG 1.1//EN" "http://www.w3.org/Graphics/SVG/1.1/DTD/svg11.dtd"><svg t="1559029777261" class="icon" style="" viewBox="0 0 1029 1024" version="1.1" xmlns="http://www.w3.org/2000/svg" p-id="8188" xmlns:xlink="http://www.w3.org/1999/xlink" width="200.9765625" height="200"><defs><style type="text/css"></style></defs><path d="M699.625916 635.014434a61.908779 61.908779 0 0 1 12.150095 49.867274 62.584455 62.584455 0 0 1-22.924708 37.258685c-24.879342 19.305018-61.257235 16.107624-82.746133-6.672297a62.548258 62.548258 0 0 1-16.421331-48.672776l-2.992278 5.212354 1.122104-0.57915-8.988899-5.212355a61.703664 61.703664 0 0 1-50.675672 67.241791c-30.453666 5.658783-61.317563-13.634169-69.98069-43.219109a62.186289 62.186289 0 0 1 10.690154-55.803568c2.027027-2.545849 2.485521-6.032818 0-8.530404-2.099421-2.099421-6.491312-2.569981-8.530405 0a75.132717 75.132717 0 0 0-15.552605 60.002408 73.29874 73.29874 0 0 0 26.544399 44.413607 73.733103 73.733103 0 0 0 119.449799-64.116791c-0.410232-4.633204-4.826254-7.408301-9.073359-5.212354a6.82915 6.82915 0 0 0-4.114382 5.791505 62.644783 62.644783 0 0 0-0.265443 8.988899 76.628856 76.628856 0 0 0 1.797779 13.923744 72.236964 72.236964 0 0 0 11.064189 25.096524 73.793431 73.793431 0 0 0 131.648156-20.402991c7.082528-23.552122 1.496139-48.82963-13.670365-67.929532-2.027027-2.557915-6.406853-2.123552-8.530405 0-2.521718 2.521718-2.039093 5.97249 0 8.530405z" fill="#006CFF" p-id="8189"></path><path d="M209.700757 873.624456V468.110488c0-18.665539 0.603282-37.403472 0-56.117274v-0.820463a12.246621 12.246621 0 0 0-12.065636-12.065636H74.107138c-12.125964 0-24.903473-1.387548-36.667469 2.195945-13.477316 4.114382-26.833975 12.367277-33.035712 25.518821C0.699807 434.67661 0 442.845046 0 451.339254V962.475801c0 6.599903 0 12.536196 1.435811 19.087836 2.678571 12.391408 9.061293 24.324323 19.16023 32.154921 9.302606 7.239382 20.37886 9.785231 31.998067 9.785231h753.064619c1.701255 0 6.35859 0.398166-0.144788-0.434363a121.006266 121.006266 0 0 0 38.48938-1.375483c25.012064-4.826254 48.491792-18.351833 64.430497-38.308395a142.555492 142.555492 0 0 0 24.975867-48.781367c3.390444-11.414092 5.827702-23.178087 8.554536-34.773164 13.597972-57.915054 26.628859-115.830108 39.635615-173.865817q18.68967-83.325284 37.125963-166.69883 4.548745-20.511582 9.073358-41.095557a70.330593 70.330593 0 0 0 1.13417-18.979246c-2.328668-47.478278-22.924709-93.050186-61.836386-121.452694a157.697865 157.697865 0 0 0-45.692564-22.405887q-6.25-1.966699-12.632721-3.462837a82.444492 82.444492 0 0 0-19.558396-1.821911H659.314625l11.631274 15.275095c2.835425-9.990347 5.079633-20.173744 7.239381-30.333009a699.601785 699.601785 0 0 0 11.643339-76.351346c3.004343-30.984554 3.776544-62.367274 0.434363-93.363893-3.438706-31.937739-10.798744-63.947872-26.5444-92.15733a141.698832 141.698832 0 0 0-71.271713-62.958489 147.64719 147.64719 0 0 0-24.481176-7.396235c-4.343629-0.916988-8.735521-1.640927-13.139477-2.244209a34.326735 34.326735 0 0 0-11.788127 0q-5.007239 0.904923-9.966215 2.087355a157.191109 157.191109 0 0 0-62.125961 30.067566c-24.36052 19.534265-41.264476 48.069495-48.805499 78.233585-2.726834 10.859073-3.125 20.801157-3.474903 31.817083q-0.241313 7.589285-0.880792 15.166504-0.398166 4.717664-0.916988 9.423262c-0.180985 1.640927-0.3861 3.281853-0.591216 4.910714s-0.265444 1.785714 0-0.072394c-0.156853 1.073842-0.301641 2.147683-0.458494 3.221525a317.808858 317.808858 0 0 1-11.353764 49.650093q-2.171815 6.853281-4.681467 13.585907-1.206564 3.330116-2.56998 6.624034-0.615347 1.532336-1.206564 3.064672c0.808398-1.954633-0.675676 1.532336-0.977316 2.232142a246.838786 246.838786 0 0 1-14.273648 27.569979 194.835894 194.835894 0 0 1-41.276542 49.155402 185.810798 185.810798 0 0 1-27.907816 19.763512c-13.368725 7.87886-1.206564 28.740345 12.174227 20.837354 39.514959-23.262547 70.390922-58.590729 89.780399-100.012059 15.130308-32.311774 23.914091-66.952215 27.750963-102.364857a287.162142 287.162142 0 0 0 1.713321-28.740346c0-2.666506-0.108591-5.272683 0.144787-7.915057 0.229247-2.413127-0.084459 0.820463-0.19305 1.351351 0.144788-0.723938 0.217181-1.484073 0.337838-2.220077q0.422297-2.618243 0.965251-5.22442a140.600859 140.600859 0 0 1 3.788609-14.333976q1.411679-4.416023 3.112935-8.747587c0.265444-0.687741 0.542954-1.363417 0.820463-2.039092 0.892857-2.244208-0.374035 0.820463 0 0.120656 0.760135-1.652992 1.472008-3.31805 2.268339-4.946911a136.124508 136.124508 0 0 1 11.17278-19.461871c0.530888-0.748069 1.061776-1.484073 1.604729-2.220077 0.361969-0.494691 0.736004-0.989382 1.110039-1.472007-0.060328 0.084459-1.315154 1.665058-0.458494 0.603281 1.387548-1.725386 2.787162-3.450772 4.247104-5.115829a126.592655 126.592655 0 0 1 8.964767-9.254343q2.413127-2.292471 5.031371-4.45222c0.808398-0.675676 1.628861-1.339286 2.413127-2.002896 0.108591-0.084459 1.508205-1.206564 0.47056-0.374034s1.423745-1.037645 1.363417-1.001448a130.972481 130.972481 0 0 1 12.258686-7.915058 119.799702 119.799702 0 0 1 28.957527-12.065636c5.815637-1.689189 12.680984-4.150579 18.77413-4.355694-1.689189 0 1.773649 0.615347-0.736004 0.277509l3.088803 0.458494q3.535231 0.555019 7.034266 1.206564a149.517364 149.517364 0 0 1 24.372585 6.973938l2.533783 1.001447c1.60473 0.627413-1.954633-0.85666-0.3861-0.168918l1.206564 0.542953c1.882239 0.85666 3.752413 1.71332 5.610521 2.642375q5.019305 2.521718 9.809362 5.477798c3.233591 2.002896 6.322393 4.186776 9.374999 6.430984 0.567085 0.422297-1.665058-1.363417 0.180985 0.156854l1.918436 1.568532q2.208011 1.846042 4.331563 3.800676 4.066119 3.740347 7.782336 7.818532 1.640927 1.809845 3.221524 3.619691 0.916988 1.085907 1.809846 2.195946c0.784266 0.977317 1.79778 2.340733 0.374035 0.434363a154.536669 154.536669 0 0 1 11.763995 18.170848q2.690637 4.886583 5.03137 9.95415c0.699807 1.508205 1.363417 3.04054 2.039093 4.56081-0.977317-2.208011-0.229247-0.555019 0.229247 0.591216q0.555019 1.363417 1.085907 2.726834a232.480679 232.480679 0 0 1 11.884652 43.822391q0.494691 2.799228 0.929054 5.610521 0.205116 1.303089 0.398166 2.606177c0.084459 0.591216 0.567085 4.066119 0.337838 2.316602s0.120656 1.001448 0.180984 1.447877l0.313707 2.630308q0.349903 3.064672 0.651544 6.141409 1.13417 11.655405 1.52027 23.371138c0.542954 15.371621 0.229247 30.755307-0.711872 46.102795-0.880791 14.32191-2.413127 28.559361-4.198842 42.784746 0.458494-3.619691-0.156853 1.122104-0.337838 2.413128q-0.361969 2.557915-0.748069 5.115829-0.687741 4.597007-1.435811 9.18195-1.411679 8.62693-3.028474 17.217663c-2.666506 14.080597-5.670849 28.137064-9.399131 41.988414-0.168919 0.651544-0.349903 1.291023-0.530888 1.942567a12.186293 12.186293 0 0 0 11.631273 15.275095h229.898633a58.880305 58.880305 0 0 1 15.214767 1.459942q6.937741 1.725386 13.730694 3.993726a117.109065 117.109065 0 0 1 21.561292 9.459459q4.524614 2.413127 8.856177 5.236486 2.328668 1.496139 4.584942 3.088803l2.208011 1.592664c2.413127 1.689189-0.325772-0.325772 1.387548 1.037644a128.68001 128.68001 0 0 1 14.925192 13.947876q3.100869 3.414575 5.960424 7.046331c1.206564 1.508205-1.628861-2.316602 0.132722 0.205116 0.361969 0.518822 0.748069 1.013513 1.110039 1.52027q1.640927 2.26834 3.173262 4.609073a136.341689 136.341689 0 0 1 8.832046 15.576737q0.94112 1.942567 1.821911 3.909266c0.229247 0.518822 0.446429 1.037645 0.687741 1.556467 1.206564 2.666506-0.94112-2.497587 0.096525 0.229247s1.99083 5.091698 2.895753 7.68581a165.226822 165.226822 0 0 1 7.058397 28.643821c0.144788 0.929054 0.349903 1.870174 0.410232 2.799227-0.265444-4.319498-0.096525-0.675676 0 0.374035q0.337838 2.895753 0.579151 5.791505c0.253378 3.100869 0.422297 6.201737 0.494691 9.302606 0 2.569981-0.627413 5.912162-0.108591 8.445945-0.325772-1.568533 0.820463-4.64527 0.108591-1.725386-0.361969 1.508205-0.675676 3.04054-1.001448 4.560811q-13.344594 60.485034-26.809844 120.945937-20.511582 92.133198-41.397198 184.181937-8.81998 38.79102-17.893338 77.521713c-2.883687 12.222489-5.405405 24.674226-9.423262 36.583009a108.590726 108.590726 0 0 1-9.942084 21.959458c-1.846042 3.161197-3.885135 6.177606-6.032818 9.181949-0.313707 0.446429-1.785714 2.413127-0.434363 0.639478-0.446429 0.567085-0.892857 1.13417-1.351352 1.68919q-2.002896 2.413127-4.150578 4.826254a97.152503 97.152503 0 0 1-7.239382 7.0222c-1.085907 0.953185-2.208011 1.870174-3.342181 2.787162-1.484073 1.206564 2.316602-1.616795-0.180985 0.132722-0.760135 0.530888-1.508205 1.097973-2.26834 1.628861a106.105205 106.105205 0 0 1-15.311292 8.711389c-3.173262 1.508205 1.52027-0.506757-1.689189 0.723939-1.206564 0.482625-2.509652 0.965251-3.776544 1.399613q-3.619691 1.278957-7.396235 2.280406-3.402509 0.916988-7.0222 1.665058-1.689189 0.337838-3.40251 0.615347l-1.32722 0.217181c-2.93195 0.494691 1.061776-0.084459 0.289575 0a144.124025 144.124025 0 0 1-20.137546 0.736004c-1.496139-0.084459-2.992278-0.337838-4.476351-0.398166 3.619691 0.156853 3.812741 0.144788-0.736004-0.072394-16.324806-0.772201-32.866793 0-49.191599 0H50.639475a43.182912 43.182912 0 0 1-5.22442-0.277509c1.833977 0.241313-2.883687-0.736004-3.619691-0.953185s-1.363417-0.458494-2.039093-0.687742c2.509652 0.868726-0.482625-0.253378-0.880791-0.458494a35.098936 35.098936 0 0 1-4.138513-2.582046c2.413127 1.689189-1.206564-1.206564-1.761583-1.785714s-3.245656-4.25917-1.544402-1.665058a65.588798 65.588798 0 0 1-4.379826-7.649613c-0.760135-1.568533 0.953185 2.835425 0.156854 0.349903-0.156853-0.482625-0.361969-0.94112-0.530888-1.423745q-0.603282-1.677123-1.085908-3.402509c-0.567085-1.99083-0.977317-3.993726-1.375482-6.032819-0.723938-3.692085 0 2.968147-0.072394-0.446428v-0.687741-1.592664V452.388964v-4.536679-1.532336c0-0.506757 0.265444-4.319498 0.132722-3.402509-0.241313 1.665058 0.458494-1.918436 0.422297-1.773649 0.265444-1.061776 0.603282-2.075289 0.965251-3.112934-0.784266 2.220077-0.072394 0.144788 0.265444-0.434363s0.832529-1.459942 1.206564-2.18388 0.736004-1.097973 1.110038-1.628861c-1.652992 2.292471 0.229247-0.180985 0.591217-0.530888 1.025579-0.989382 2.027027-1.966699 3.088802-2.895753 1.375483-1.206564-2.413127 1.435811 0.120657-0.072393 0.772201-0.458494 1.496139-1.013513 2.268339-1.484074 1.206564-0.760135 2.521718-1.459942 3.812741-2.09942 0.627413-0.313707 1.206564-0.591216 1.894305-0.880792 1.592664-0.748069-2.811293 0.953185-0.301641 0.144788 2.171815-0.699807 4.283301-1.508205 6.491313-2.087355 1.411679-0.361969 2.835425-0.603282 4.247104-0.94112 2.521718-0.579151-2.413127 0.19305-2.039093 0.27751a27.376929 27.376929 0 0 0 4.826255 0H197.635121l-12.065636-12.065636v405.538098c0 18.665539-0.603282 37.403472 0 56.117274v0.820464c0 15.528474 24.131272 15.552605 24.131272 0z" fill="#006CFF" p-id="8190"></path></svg>