<?xml version="1.0" standalone="no"?><!DOCTYPE svg PUBLIC "-//W3C//DTD SVG 1.1//EN" "http://www.w3.org/Graphics/SVG/1.1/DTD/svg11.dtd"><svg t="1559200312861" class="icon" style="" viewBox="0 0 1024 1024" version="1.1" xmlns="http://www.w3.org/2000/svg" p-id="12716" xmlns:xlink="http://www.w3.org/1999/xlink" width="200" height="200"><defs><style type="text/css"></style></defs><path d="M939.877067 406.434709l-0.007163 0c-23.036669-37.21253-62.978357-60.717873-107.110483-63.143109-2.75781-0.38681-5.511527-0.580215-8.352225-0.580215l-152.327314-0.11768c6.650467-28.949332 10.021238-58.597583 10.021238-88.565105 0-28.194132-3.216251-57.078996-9.56689-85.86767-0.448208-2.041496-1.099031-3.997034-1.929955-5.859451-15.83771-57.240679-67.436902-96.741321-127.392412-96.741321-72.888054 0-132.191718 59.192124-132.191718 131.945101 0 3.326768 0.132006 6.664793 0.408299 10.002818-2.199085 57.154721-32.136931 109.835547-80.337723 141.217279-14.458293 9.419534-18.538215 28.741601-9.104355 43.175335 9.41544 14.422478 28.777417 18.512632 43.25106 9.086959 65.868173-42.881646 106.519012-115.200742 108.750843-193.479573 0.028653-1.328251-0.007163-2.660596-0.140193-3.989871-0.204661-2.012843-0.308015-4.01443-0.308015-6.012947 0-38.344307 31.263028-69.542866 69.671803-69.542866 32.609699 0 60.528562 22.184255 67.88511 53.94154 0.358157 1.532913 0.823761 3.019777 1.403976 4.448312 4.699022 22.793122 7.080256 45.536103 7.080256 67.677379 0 37.44482-6.227842 74.270541-18.509563 109.47739-3.327792 9.534144-1.819438 20.088524 4.03285 28.315906 5.859451 8.237615 15.343453 13.130042 25.468045 13.144368l193.389522 0.100284c1.425466 0.260943 2.858094 0.426719 4.305049 0.476861 24.1357 0.995677 45.973054 13.598716 58.651818 34.056654 7.843642 12.299117 11.449773 26.771737 10.43977 41.893132-0.078795 0.945535-0.11768 1.909489-0.11154 2.876514 0 0.852414 0.042979 1.693572 0.11154 2.52859 0.014326 0.336668-0.028653 0.659009-0.11154 0.978281-0.100284 0.372483-0.193405 0.766456-0.282433 1.153266l-75.033927 330.052065c-0.916882 1.279133-1.740644 2.636037-2.453888 4.044106-5.945409 11.747555-14.673188 21.456684-25.364691 28.139897-10.759041 6.804986-23.079648 10.604522-35.790134 11.048637-0.852414-0.057305-514.201132-0.222057-514.201132-0.222057-0.465604-0.021489-0.931209-0.028653-1.399883-0.028653 0 0-111.107517 0.171915-112.812345 0.451278-1.934049 0-3.452635-1.500167-3.452635-3.409656l0.300852-415.901315c0-1.902326 1.547239-3.442402 3.019777-3.452635l1.246387 0.11768c1.174756 0.13303 2.653433 0.286526 3.527336 0.197498l83.901899-0.225127 0 339.013157c0 17.237593 13.989619 31.205723 31.259958 31.205723 17.266245 0 31.259958-13.96813 31.259958-31.205723L280.972253 407.946133c0-17.234523-13.992689-30.894637-31.259958-30.894637-1.508353 0-117.647467 0.303922-119.502721 0.303922-36.370349 0-65.965387 29.53364-65.965387 65.825195l-0.303922 415.901315c0 36.302811 29.598108 65.836451 65.968457 65.836451 2.542916 0 111.497397-0.458441 111.497397-0.458441 0.458441 0.021489 0.928139 0.031722 1.382487 0.031722 0 0 511.89153 0.276293 512.937348 0.276293 25.489534 0 50.342572-7.194866 71.706135-20.711717 19.634176-12.266371 35.811624-29.848819 46.885843-50.91153 3.660366-5.615904 6.435573-11.862165 8.259104-18.59859 0.11154-0.415462 0.214894-0.823761 0.303922-1.239224l74.947969-329.997829c1.597381-6.206352 2.25639-12.574387 2.00261-18.971074C961.427896 456.326003 954.475554 429.316859 939.877067 406.434709zM450.130907 501.561253c-17.270339 0-31.263028 13.964036-31.263028 31.198559l0 30.439266c0 17.237593 13.992689 31.205723 31.263028 31.205723 17.263176 0 31.255865-13.96813 31.255865-31.205723l0-30.439266C481.387795 515.52529 467.394083 501.561253 450.130907 501.561253zM694.110641 594.405825c17.270339 0 31.255865-13.96813 31.255865-31.205723l0-30.439266c0-17.234523-13.985526-31.198559-31.255865-31.198559S662.850683 515.52529 662.850683 532.759813l0 30.439266C662.850683 580.437695 676.840302 594.405825 694.110641 594.405825zM606.015234 651.613758c-0.132006 0.190335-13.627369 19.73753-34.199916 19.73753-20.009729 0-32.44904-18.079774-33.29429-19.35072-9.18008-14.415314-28.28009-18.788925-42.874483-9.759271-14.662955 9.097192-19.168572 28.333302-10.060123 42.971697 11.220552 18.029632 42.004673 48.54053 86.22992 48.54053 43.999097 0 75.165933-30.292933 86.641289-48.172139 9.233292-14.386662 5.042853-33.322943-9.247618-42.720987l0-0.00307C634.892935 633.476679 615.588263 637.46655 606.015234 651.613758z" p-id="12717" fill="#006CFF"></path></svg>