<?xml version="1.0" standalone="no"?><!DOCTYPE svg PUBLIC "-//W3C//DTD SVG 1.1//EN" "http://www.w3.org/Graphics/SVG/1.1/DTD/svg11.dtd"><svg t="1559185833112" class="icon" style="" viewBox="0 0 1024 1024" version="1.1" xmlns="http://www.w3.org/2000/svg" p-id="11076" xmlns:xlink="http://www.w3.org/1999/xlink" width="240" height="240"><defs><style type="text/css"></style></defs><path d="M964.923077 448.984615c-11.815385-47.261538-43.323077-78.769231-70.892308-94.523077-23.630769-11.815385-47.261538-19.692308-74.830769-19.692307h-98.461538c15.753846-43.323077 19.692308-94.523077 19.692307-102.4v-3.938462c0-39.384615-3.938462-74.830769-15.753846-102.4-11.815385-27.569231-27.569231-47.261538-47.261538-63.015384-19.692308-15.753846-43.323077-23.630769-66.953847-23.63077-19.692308 0-43.323077 0-63.015384 7.876923-31.507692 7.876923-51.2 31.507692-63.015385 59.076924-11.815385 23.630769-11.815385 47.261538-15.753846 66.953846v3.938461c0 7.876923-3.938462 15.753846-3.938461 23.630769-11.815385 55.138462-39.384615 106.338462-78.769231 149.661539-19.692308 23.630769-43.323077 39.384615-66.953846 55.138461-15.753846 7.876923-35.446154 15.753846-51.2 15.753847H157.538462c-39.384615 0-74.830769 31.507692-74.83077 74.830769v358.4c0 39.384615 31.507692 70.892308 70.892308 70.892308h157.538462c31.507692 0 59.076923 7.876923 90.584615 19.692307 55.138462 19.692308 126.030769 39.384615 259.938461 39.384616 82.707692 0 141.784615-19.692308 181.169231-63.015385 15.753846-19.692308 31.507692-43.323077 35.446154-66.953846 0-3.938462 0-7.876923 3.938462-11.815385 23.630769-19.692308 39.384615-43.323077 47.261538-70.892307 7.876923-27.569231 0-51.2-3.938461-66.953847 19.692308-19.692308 35.446154-43.323077 35.446153-66.953846 3.938462-27.569231-3.938462-51.2-11.815384-66.953846 7.876923-15.753846 15.753846-35.446154 19.692307-51.2 0-27.569231 0-51.2-3.938461-70.892308z m-86.646154 137.846154c3.938462 3.938462 11.815385 19.692308 11.815385 35.446154-3.938462 11.815385-11.815385 27.569231-31.507693 39.384615-15.753846 11.815385-19.692308 31.507692-11.815384 51.2 0 0 11.815385 23.630769 7.876923 43.323077-3.938462 11.815385-11.815385 23.630769-31.507692 35.446154-11.815385 7.876923-19.692308 19.692308-15.753847 35.446154 0 0 0 27.569231-19.692307 51.2-23.630769 23.630769-66.953846 39.384615-126.03077 39.384615-122.092308 0-185.107692-19.692308-236.307692-39.384615-31.507692-11.815385-63.015385-19.692308-98.461538-23.630769v-370.215385c7.876923-3.938462 19.692308-7.876923 27.56923-11.815384 27.569231-15.753846 55.138462-39.384615 82.707693-66.953847 47.261538-51.2 82.707692-114.215385 94.523077-181.16923 3.938462-11.815385 3.938462-19.692308 3.938461-31.507693 7.876923-47.261538 11.815385-66.953846 31.507693-70.892307 7.876923-3.938462 43.323077-11.815385 66.953846 7.876923 23.630769 15.753846 35.446154 55.138462 35.446154 106.338461 0 15.753846-7.876923 63.015385-19.692308 94.523077-7.876923 19.692308-7.876923 39.384615 3.938461 55.138462 11.815385 15.753846 27.569231 27.569231 47.261539 27.569231h114.215384c15.753846 0 27.569231 3.938462 39.384616 11.815384 15.753846 7.876923 31.507692 27.569231 39.384615 51.2 3.938462 23.630769 0 51.2-19.692307 78.769231-7.876923 3.938462-3.938462 19.692308 3.938461 31.507692zM149.661538 492.307692h102.4v358.4H149.661538v-358.4z" fill="#006CFF" p-id="11077"></path></svg>