<?xml version="1.0" standalone="no"?><!DOCTYPE svg PUBLIC "-//W3C//DTD SVG 1.1//EN" "http://www.w3.org/Graphics/SVG/1.1/DTD/svg11.dtd"><svg t="1559217750877" class="icon" style="" viewBox="0 0 1024 1024" version="1.1" xmlns="http://www.w3.org/2000/svg" p-id="2360" xmlns:xlink="http://www.w3.org/1999/xlink" width="200" height="200"><defs><style type="text/css"></style></defs><path d="M556.834 720.805c-12.595-11.619-27.484-17.461-44.378-17.461-17.462 0-32.409 6.070-44.778 18.209-12.423 12.195-18.608 26.795-18.608 43.629 0 8.476 1.658 16.434 5.151 23.879 3.438 7.39 8.073 13.691 13.911 19.009 5.729 5.267 12.485 9.506 20.1 12.654 7.668 3.203 15.746 4.811 24.218 4.811 17.462 0 32.407-6.070 44.834-18.267 12.423-12.077 18.608-26.739 18.608-43.628 0-16.948-6.294-31.204-19.065-42.828z" p-id="2361" fill="#ffffff"></path><path d="M511.307 54.508c-252.556 0-458.050 205.494-458.050 458.050 0 82.431 21.917 159.817 60.179 226.699 2.243-2.506 5.087-4.428 8.304-5.547-4.416 2.171-3.892 1.881-3.317 1.575 3.487-4.225 8.078-7.42 13.331-9.153-5.765 2.354-5.312 1.799-4.857 1.249 0.66-1.984 2.038-3.685 4.141-4.527 0.403-0.382 0.841-0.739 1.267-1.104 8.335-12.099 18.894-22.045 31.152-29.458-24.599 20.723-24.301 20.22-24.019 19.683 1.906-3.63 4.069-7.553 6.934-10.702-29.365-56.548-46.005-120.716-46.005-188.713 0-226.564 184.368-410.932 410.932-410.932 226.567 0 410.932 184.368 410.932 410.932 0 226.622-184.368 410.992-410.932 410.992-84.814 0-163.691-25.871-229.21-70.097-8.516 13.155-18.572 25.31-27.791 38.031 73.33 49.909 161.804 79.134 256.997 79.134 252.556 0 458.054-205.442 458.054-458.054 0.001-252.556-205.494-458.050-458.050-458.050z" p-id="2362" fill="#ffffff"></path><path d="M610.704 538.326c12.25-10.537 23.246-20.729 32.978-30.516 9.85-9.789 18.153-19.983 25.024-30.516 6.928-10.65 12.195-22.272 15.917-34.987 3.669-12.654 5.495-27.424 5.495-44.378 0-24.852-4.467-46.835-13.509-65.843-8.99-19.068-21.299-35.041-36.815-47.982-15.627-12.944-33.609-22.785-53.937-29.371-20.442-6.586-41.908-9.903-64.699-9.903-24.335 0-47.065 3.55-68.247 10.705-21.13 7.157-39.907 17.579-56.34 31.318-16.318 13.74-29.657 30.516-40.020 50.331-10.247 19.867-17.063 42.484-20.155 67.905l97.508 8.7c0.516-10.588 2.692-20.838 6.355-30.917 3.669-10.079 9.104-18.951 16.26-26.623 7.157-7.615 15.63-13.74 25.363-18.209 9.847-4.523 20.838-6.759 32.921-6.759 23.818 0 42.203 7.043 55.252 21.073 12.881 13.967 19.407 31.263 19.407 51.933 0 15.861-3.604 29.316-10.766 40.426-14.366 22.13-33.899 39.773-56.954 51.503l-4.483 12.743c-10.075 9.506-18.439 18.608-25.024 27.026-6.642 8.415-11.908 17.18-15.917 26.166-3.949 8.99-6.812 18.494-8.7 28.46-1.888 10.134-2.809 21.474-2.809 34.238v30.060h93.613v-20.555c0-11.681 0.802-21.414 2.406-29.43 1.604-7.959 4.405-15.348 8.361-22.156 3.894-6.928 9.162-13.74 15.805-20.614 6.585-6.868 15.286-14.827 25.708-23.82z" p-id="2363" fill="#ffffff"></path></svg>