<?xml version="1.0" standalone="no"?><!DOCTYPE svg PUBLIC "-//W3C//DTD SVG 1.1//EN" "http://www.w3.org/Graphics/SVG/1.1/DTD/svg11.dtd"><svg t="1558857874914" class="icon" style="" viewBox="0 0 1130 1024" version="1.1" xmlns="http://www.w3.org/2000/svg" p-id="8781" xmlns:xlink="http://www.w3.org/1999/xlink" width="297.94921875" height="270"><defs><style type="text/css"></style></defs><path d="M979.987 274.89H539.483L406.519 61.37H128.353c-36.94 0-66.983 34.048-66.983 75.884v749.492a75.995 75.995 0 0 0 75.884 75.884h842.733a75.995 75.995 0 0 0 75.884-75.884V350.775a75.995 75.995 0 0 0-75.884-75.884z m-877.114 8.68V137.254c0-18.693 11.683-34.492 25.591-34.492h255.023l107.15 172.129H137.365a75.105 75.105 0 0 0-34.492 8.679zM282.79 749.332a30.265 30.265 0 1 1 30.264-30.265 30.265 30.265 0 0 1-30.264 30.265z m0-196.386a30.265 30.265 0 1 1 30.264-30.264 30.265 30.265 0 0 1-30.264 30.264z m582.035 186.705H425.212a20.696 20.696 0 1 1 0-41.39h439.726a20.696 20.696 0 1 1 0 41.39z m0-196.274H425.212a20.696 20.696 0 1 1 0-41.391h439.726a20.696 20.696 0 1 1 0 41.391z" fill="#31799f" p-id="8782"></path></svg>