<?xml version="1.0" standalone="no"?><!DOCTYPE svg PUBLIC "-//W3C//DTD SVG 1.1//EN" "http://www.w3.org/Graphics/SVG/1.1/DTD/svg11.dtd"><svg t="1558858291905" class="icon" style="" viewBox="0 0 1170 1024" version="1.1" xmlns="http://www.w3.org/2000/svg" p-id="18500" xmlns:xlink="http://www.w3.org/1999/xlink" width="239.94140625" height="210"><defs><style type="text/css"></style></defs><path d="M1170.696987 254.54542L901.540309 0.016822h-541.238973A65.826362 65.826362 0 0 0 293.012167 64.380376v394.958169a326.206192 326.206192 0 0 1 73.140402-16.822292V73.157224h459.321722v152.86344a105.322178 105.322178 0 0 0 106.053583 104.590774H1097.556586V950.842045H676.267872a329.863212 329.863212 0 0 1-68.751978 73.140401h495.891924a65.826362 65.826362 0 0 0 67.289169-63.632149V254.54542z m-237.706305 0a29.987565 29.987565 0 0 1-30.718969-29.25616V101.681981l161.640288 153.594843z" p-id="18501" fill="#ffffff"></path><path d="M768.424778 365.718831h-219.421205a36.570201 36.570201 0 0 0 0 73.140402h219.421205a36.570201 36.570201 0 0 0 0-73.140402zM728.197557 731.420839h186.508024a36.570201 36.570201 0 0 0 0-73.140401H711.375265a326.206192 326.206192 0 0 1 16.822292 73.140401zM341.284832 609.276369a10.97106 10.97106 0 0 0-19.016504 8.045444v92.88831c-10.239656 0-19.747908 0-29.987565-5.119828A365.702009 365.702009 0 0 1 23.124085 476.892241a8.045444 8.045444 0 0 0-15.359485 0 356.193756 356.193756 0 0 0 10.239656 185.776621A365.702009 365.702009 0 0 0 73.590962 769.453848a365.702009 365.702009 0 0 0 32.91318 38.033009 359.119372 359.119372 0 0 0 171.879945 97.276735H293.012167l29.987565 5.119828v98.008138c0 2.925616 0 0 0 0a10.97106 10.97106 0 0 0 15.359484 8.045444l73.140402-67.289169 146.280803-136.772552L366.152569 631.949893z" p-id="18502" fill="#ffffff"></path></svg>