<?xml version="1.0" standalone="no"?><!DOCTYPE svg PUBLIC "-//W3C//DTD SVG 1.1//EN" "http://www.w3.org/Graphics/SVG/1.1/DTD/svg11.dtd"><svg t="1559106061145" class="icon" style="" viewBox="0 0 1270 1024" version="1.1" xmlns="http://www.w3.org/2000/svg" p-id="7281" xmlns:xlink="http://www.w3.org/1999/xlink" width="248.046875" height="200"><defs><style type="text/css"></style></defs><path d="M120.903941 638.187931c0 0 11.665157-48.178695-28.523704-89.685878-40.228811-41.587082-90.56476-41.587082-90.56476-41.587082s-12.264394 56.607968 26.965688 97.116424C68.011244 644.4999 120.903941 638.187931 120.903941 638.187931zM735.24222 677.258216 735.24222 235.779979 631.214591 235.779979c-0.838933 18.216819-5.153442 33.51735-13.023429 45.98149-7.830037 12.46414-17.857278 22.411482-30.081722 29.802078-12.304343 7.430545-26.006907 12.663886-41.267489 15.859819C531.621319 330.579352 516.001195 331.977572 499.901681 331.578081l0 91.323794 103.428392 0 0 254.356342L735.24222 677.258216zM330.916708 444.23473c-3.275831-17.977125-5.193392-36.393691-5.193392-55.329595 0-170.902533 138.264065-309.965582 308.807056-311.443701l0 0.159797c170.862585 1.118576 309.52614 140.38137 309.52614 311.483649 0 18.935905-1.957509 37.35247-5.193392 55.329595l78.180518 0c2.596695-18.136922 4.394409-36.473588 4.394409-55.329595 0-213.528294-173.01984-387.347117-386.188591-388.865185L635.249457 0c-213.528294 1.118576-386.907676 175.137145-386.907676 388.905133 0 18.856007 1.797712 37.192674 4.394409 55.329595L330.916708 444.23473zM209.191599 629.039572c0 0 46.700575-25.647365 55.010002-81.376451 8.309427-55.769036-34.635928-94.679524-34.635928-94.679524s-40.867997 29.322689-49.417119 86.529894C171.639382 596.680748 209.191599 629.039572 209.191599 629.039572zM239.832609 684.089524c-0.95878 57.806444 40.468505 84.971877 40.468505 84.971877s42.945354-31.559841 43.944083-87.888166c0.91883-56.368274-46.700575-89.326335-46.700575-89.326335S240.791389 626.243131 239.832609 684.089524zM366.631263 673.383147c0 0-33.317604 37.712013-28.883247 95.398609 4.474307 57.646647 48.258593 80.777214 48.258593 80.777214s39.829319-35.394961 35.514809-91.603439C417.127009 701.787005 366.631263 673.383147 366.631263 673.383147zM518.757688 918.990621c0 0 27.964417-45.422202 7.630291-97.995305-20.374074-52.533154-76.942094-65.15709-76.942094-65.15709s-21.05321 45.741796-0.159797 99.67317C470.139552 909.48272 518.757688 918.990621 518.757688 918.990621zM139.799896 514.824906c0 0 36.473588-33.5573 26.046856-90.444913C155.499919 367.53233 113.633193 339.567913 113.633193 339.567913s-41.587082 40.308708-31.439994 95.7981C92.300338 490.775508 139.799896 514.824906 139.799896 514.824906zM169.761771 747.089359c0 0-3.036137-49.457068-53.69168-77.341586-50.695492-27.844568-98.794288-13.023429-98.794288-13.023429s4.993646 57.726546 54.410765 84.891978C121.063737 768.781756 169.761771 747.089359 169.761771 747.089359zM255.452733 842.847511c0 0-13.942259-47.539508-69.51155-63.439276-55.649189-15.859819-99.233729 9.228257-99.233729 9.228257s17.69748 55.169799 71.86855 70.670075C212.787023 874.766894 255.452733 842.847511 255.452733 842.847511zM351.011139 910.880941c0 0-27.684772-41.067743-85.491215-39.429827-57.846393 1.677865-91.763235 38.830589-91.763235 38.830589s33.5573 47.259864 89.885624 45.621947C320.010586 954.265735 351.011139 910.880941 351.011139 910.880941zM391.879136 938.645611c-57.207206 8.58907-86.489945 49.497017-86.489945 49.497017s38.990386 42.865455 94.719473 34.516079c55.769036-8.389325 81.336503-55.129849 81.336503-55.129849S449.006444 930.016591 391.879136 938.645611zM158.77575 542.989068l-27.524975-0.95878c-0.119847 2.996188-5.512985 301.975748 446.152289 434.487132l7.750138-26.486298C155.100427 823.871657 158.416208 554.414529 158.77575 542.989068zM1148.835939 638.387677c0 0 52.932645 6.351918 92.122778-34.156537 39.190132-40.508454 26.965688-97.116424 26.965688-97.116424s-50.335949 0-90.56476 41.587082C1137.170782 590.208983 1148.835939 638.387677 1148.835939 638.387677zM1005.538279 547.862867c8.309427 55.769036 55.010002 81.376451 55.010002 81.376451s37.552216-32.358824 29.043044-89.526081c-8.509173-57.207206-49.417119-86.529894-49.417119-86.529894S997.228853 492.09383 1005.538279 547.862867zM945.534631 681.37298c0.95878 56.328324 43.944083 87.888166 43.944083 87.888166s41.427286-27.165434 40.468505-84.971877c-0.95878-57.846393-37.672064-92.242625-37.672064-92.242625S944.65575 625.044656 945.534631 681.37298zM848.218463 758.195227c-4.31451 56.208477 35.514809 91.603439 35.514809 91.603439s43.824235-23.130567 48.258593-80.777214c4.434357-57.646647-28.883247-95.398609-28.883247-95.398609S852.612871 701.98675 848.218463 758.195227zM743.39185 821.235012c-20.334126 52.573103 7.630291 97.995305 7.630291 97.995305s48.618135-9.547851 69.4716-63.479225c20.853464-53.931374-0.159797-99.67317-0.159797-99.67317S763.765925 768.701858 743.39185 821.235012zM1187.586631 435.56576c10.147088-55.489392-31.439994-95.7981-31.439994-95.7981s-41.866726 27.964417-52.25351 84.852029c-10.386783 56.847664 26.046856 90.444913 26.046856 90.444913S1177.479491 491.015203 1187.586631 435.56576zM1153.709738 669.987468c-50.655543 27.884518-53.69168 77.341586-53.69168 77.341586s48.698034 21.692397 98.115153-5.473036c49.37717-27.165434 54.410765-84.891978 54.410765-84.891978S1204.405229 642.142899 1153.709738 669.987468zM1083.838645 779.60798c-55.569291 15.899768-69.51155 63.439276-69.51155 63.439276s42.665709 31.959333 96.876728 16.459057c54.17107-15.500277 71.86855-70.670075 71.86855-70.670075S1139.487834 763.708212 1083.838645 779.60798zM1004.219957 871.650859c-57.766494-1.677865-85.491215 39.429827-85.491215 39.429827s31.000553 43.384795 87.368826 45.02271c56.328324 1.637916 89.885624-45.621947 89.885624-45.621947S1062.06635 873.368674 1004.219957 871.650859zM877.900693 938.845357c-57.167257-8.58907-89.566031 28.923196-89.566031 28.923196s25.567466 46.740525 81.336503 55.129849c55.729087 8.309427 94.719473-34.516079 94.719473-34.516079S935.107899 947.434428 877.900693 938.845357zM1138.569004 542.230034l-27.524975 0.95878c0.359543 11.425461 3.635374 280.882589-426.377452 407.082004l7.750138 26.486298C1144.081988 844.205782 1138.648901 545.226222 1138.569004 542.230034z" p-id="7282" fill="#EAA240"></path></svg>