<?xml version="1.0" standalone="no"?><!DOCTYPE svg PUBLIC "-//W3C//DTD SVG 1.1//EN" "http://www.w3.org/Graphics/SVG/1.1/DTD/svg11.dtd"><svg t="1558960662724" class="icon" style="" viewBox="0 0 1024 1024" version="1.1" xmlns="http://www.w3.org/2000/svg" p-id="4274" xmlns:xlink="http://www.w3.org/1999/xlink" width="220" height="220"><defs><style type="text/css"></style></defs><path d="M771.672315 0.153546 252.327685 0.153546C197.716399 0.153546 153.443895 44.067776 153.443895 98.167241L153.443895 926.037487C153.443895 980.08577 197.665217 1024 252.327685 1024L771.672315 1024C826.334783 1024 870.556105 980.136952 870.556105 926.088669L870.556105 98.167241C870.556105 44.067776 826.334783 0.153546 771.672315 0.153546ZM374.089869 53.997101 649.910131 53.997101 649.910131 161.786575 374.089869 161.786575 374.089869 53.997101ZM512.025591 975.069926C457.363123 975.069926 413.090618 953.163993 413.090618 926.088669 413.090618 899.013345 457.414305 877.107412 512.025591 877.107412 566.585695 877.107412 610.909382 899.013345 610.909382 926.088669 610.909382 953.163993 566.585695 975.069926 512.025591 975.069926ZM760.207527 808.472235 263.792473 808.472235 263.792473 215.732494 760.207527 215.732494 760.207527 808.472235Z" p-id="4275" fill="#8cba50"></path></svg>