<?xml version="1.0" standalone="no"?><!DOCTYPE svg PUBLIC "-//W3C//DTD SVG 1.1//EN" "http://www.w3.org/Graphics/SVG/1.1/DTD/svg11.dtd"><svg t="1558865235217" class="icon" style="" viewBox="0 0 1025 1024" version="1.1" xmlns="http://www.w3.org/2000/svg" p-id="16308" xmlns:xlink="http://www.w3.org/1999/xlink" width="220.21484375" height="220"><defs><style type="text/css"></style></defs><path d="M999.806812 774.528936c40.319849 48.319819 21.951918 121.471544 7.99997 135.679491-13.887948 14.463946-12.863952 21.37592-79.551702 81.919693-67.135748 60.927772-201.343245 19.199928-262.271016 0-60.991771-19.391927-226.55915-125.31153-379.774576-270.910985C131.07407 573.697689 50.88237 389.954378 18.050494 290.050752c-32.831877-100.095625-12.287954-136.319489 0-170.111362 12.159954-33.919873 34.68787-62.591765 101.11962-100.735622C185.473866-19.004089 209.601775 10.051802 226.561712 19.203768c17.023936 8.959966 91.263658 73.983723 117.055561 135.423492 25.599904 61.43977 13.43995 100.927622-6.399976 119.615552-19.711926 18.55993-33.791873 35.711866-50.111812 47.231822-16.319939 11.391957-19.839926 27.903895-17.343935 59.711777 2.303991 31.99988 117.503559 156.543413 140.223474 179.519326 22.655915 23.039914 172.671352 178.239332 224.703157 190.143287 52.159804 11.711956 71.039734-10.879959 76.671713-17.087936 5.631979-6.015977 26.175902-33.919873 49.407814-53.375799 23.359912-19.327928 85.759678-14.079947 101.119621-3.199988 15.423942 10.879959 97.599634 48.767817 137.919483 97.279635z m-284.734932-348.350694c-12.799952 0-24.191909-8.959966-26.8159-22.015918-16.511938-82.303691-76.351714-115.967565-76.991711-116.287564a27.391897 27.391897 0 0 1 26.303901-47.99982c3.391987 1.791993 82.943689 46.463826 104.319609 153.599424a27.391897 27.391897 0 0 1-26.815899 32.703878z m127.99952 13.951948a27.391897 27.391897 0 0 1-27.263898-24.639908c-7.487972-74.239722-37.119861-135.93549-87.871671-183.487312-38.527856-36.031865-75.519717-50.175812-75.903715-50.303811a27.327898 27.327898 0 1 1 18.879929-51.391808c1.919993 0.639998 46.079827 17.151936 92.415654 59.839776 42.62384 39.231853 95.807641 109.24759 107.007598 219.839176a27.391897 27.391897 0 0 1-27.327897 30.143887z" p-id="16309" fill="#98d4f5"></path><path d="M994.622831 426.69024c-16.383939 0-29.695889-12.159954-29.759888-27.199898-0.319999-110.079587-43.967835-201.599244-129.599514-271.99898A436.798362 436.798362 0 0 0 703.295924 53.25164c-15.551942-4.799982-23.93591-20.223924-18.81593-34.55987 5.183981-14.207947 21.951918-21.951918 37.50386-17.279935 3.135988 0.959996 76.927712 23.807911 151.039433 83.967685a415.678441 415.678441 0 0 1 103.679612 122.62354c31.359882 57.279785 47.359822 121.599544 47.615821 191.359282 0 15.103943-13.24795 27.327898-29.631889 27.391898h-0.064z" p-id="16310" fill="#98d4f5"></path></svg>