<?xml version="1.0" standalone="no"?><!DOCTYPE svg PUBLIC "-//W3C//DTD SVG 1.1//EN" "http://www.w3.org/Graphics/SVG/1.1/DTD/svg11.dtd"><svg t="1559045239988" class="icon" style="" viewBox="0 0 1024 1024" version="1.1" xmlns="http://www.w3.org/2000/svg" p-id="2763" xmlns:xlink="http://www.w3.org/1999/xlink" width="200" height="200"><defs><style type="text/css"></style></defs><path d="M786.1 458.2c-10 0-18.1-8.1-18.1-18.1 0-10 8.1-18.1 18.1-18.1 56.4 0 102.3-44.1 102.3-98.3 0-54.2-45.9-98.3-102.3-98.3-10 0-18.1-8.1-18.1-18.1s8.1-18.1 18.1-18.1c76.4 0 138.5 60.4 138.5 134.6 0 74-62.1 134.4-138.5 134.4zM248.9 458.2c-76.4 0-138.5-60.4-138.5-134.6 0-74.2 62.1-134.6 138.5-134.6 10 0 18.1 8.1 18.1 18.1s-8.1 18.1-18.1 18.1c-56.4 0-102.3 44.1-102.3 98.3 0 54.2 45.9 98.3 102.3 98.3 10 0 18.1 8.1 18.1 18.1 0 10.1-8.1 18.3-18.1 18.3z" fill="#EAA240" p-id="2764"></path><path d="M701.2 855c-10 0-18.1-8.1-18.1-18.1v-3.6c0.1-9 0.4-24.1-7.3-31.7-4.9-4.8-13.4-7.1-25.4-6.9-48.6 0-87.8-39.2-87.8-87.4v-8.6c0-44.2 24.8-85 64.8-106.3 83-44.4 134.5-126.7 134.5-214.7V119.8c0-10.4-8.5-18.9-18.9-18.9H288.9c-10.4 0-18.9 8.5-18.9 18.9v257.9c0 89.8 52.3 175.3 133.2 217.9 40.8 21.4 66.1 62.5 66.1 107v4.8c0 48.2-39.2 87.4-87.4 87.4h-1.3c-0.1 0-19-0.9-30.9 10.4-7.2 6.8-10.9 17.5-10.9 31.8 0 10-8.1 18.1-18.1 18.1-10 0-18.1-8.1-18.1-18.1 0-24.8 7.6-44.5 22.6-58.5 21.9-20.5 51.1-20.2 57.2-19.9 28-0.3 50.7-23.1 50.7-51.2v-4.8c0-31.1-17.9-59.8-46.7-74.9-92.7-48.8-152.6-146.9-152.6-250V119.8c0-30.4 24.7-55.1 55.1-55.1H743c30.4 0 55.1 24.7 55.1 55.1v257.9c0 101.5-58.9 196-153.6 246.7-28.1 15.1-45.6 43.6-45.6 74.4v8.6c0 28.2 23 51.2 51.2 51.2 21.7-0.6 39.2 5.3 51.4 17.4 18.6 18.5 18.2 45.1 18 58v3c-0.2 9.9-8.3 18-18.3 18z" fill="#EAA240" p-id="2765"></path><path d="M452.1 510.6c-7.5 0-14.9-2.3-21.3-7-11.2-8.2-16.8-21.8-14.4-35.5l9-52.2-38-37c-10-9.7-13.5-23.9-9.2-37.2 4.3-13.2 15.5-22.7 29.3-24.7l52.5-7.6 23.5-47.5c6.2-12.5 18.6-20.2 32.5-20.2 13.9 0 26.4 7.7 32.5 20.2l23.5 47.5 52.5 7.6c13.8 2 25 11.4 29.3 24.7 4.3 13.2 0.8 27.5-9.2 37.2l-38 37 9 52.2c2.3 13.7-3.2 27.3-14.4 35.5-11.3 8.2-25.9 9.2-38.2 2.8l-47-24.7-46.9 24.7c-5.4 2.8-11.2 4.2-17 4.2z m63.9-65.1c5.8 0 11.6 1.4 16.9 4.2l46.9 24.7-9-52.2c-2-11.8 1.9-23.8 10.4-32.1l38-37-52.5-7.6c-11.8-1.7-22-9.1-27.3-19.8l-23.5-47.6-23.4 47.6a36.23 36.23 0 0 1-27.3 19.8l-52.5 7.6 38 37c8.5 8.3 12.4 20.3 10.4 32.1l-9 52.2 46.9-24.7c5.4-2.8 11.2-4.2 17-4.2zM775.5 191H268c-10 0-18.1-8.5-18.1-18.5S258 154 268 154h507.5c10 0 18.1 8.5 18.1 18.5s-8.1 18.5-18.1 18.5zM576.1 681H449.2c-10 0-18.1-8.5-18.1-18.5s8.1-18.5 18.1-18.5h126.9c10 0 18.1 8.5 18.1 18.5s-8.1 18.5-18.1 18.5zM766 958.7H265.9c-10.5 0-20.5-4.6-27.4-12.5-6.9-8-10-18.5-8.5-28.9 0.1-0.4 0.1-0.7 0.2-1.1L243 855c2.8-17.4 18.1-30.4 35.8-30.4h474.3c17.7 0 32.9 13 35.8 30.4l12.8 61.1c0.1 0.4 0.1 0.7 0.2 1.1 1.5 10.4-1.6 21-8.5 28.9-6.9 8.1-16.9 12.6-27.4 12.6z m-500-36.2h500L753.3 862c-0.1-0.4-0.1-0.7-0.2-1.1H278.8c-0.1 0.4-0.1 0.7-0.2 1.1L266 922.5z" fill="#EAA240" p-id="2766"></path></svg>