<?xml version="1.0" standalone="no"?><!DOCTYPE svg PUBLIC "-//W3C//DTD SVG 1.1//EN" "http://www.w3.org/Graphics/SVG/1.1/DTD/svg11.dtd"><svg t="1559045363142" class="icon" style="" viewBox="0 0 1024 1024" version="1.1" xmlns="http://www.w3.org/2000/svg" p-id="3873" xmlns:xlink="http://www.w3.org/1999/xlink" width="200" height="200"><defs><style type="text/css"></style></defs><path d="M512 0C230.4 0 0 230.4 0 512s230.4 512 512 512 512-230.4 512-512S793.6 0 512 0z m0 981.333333C251.733333 981.333333 42.666667 772.266667 42.666667 512S251.733333 42.666667 512 42.666667s469.333333 209.066667 469.333333 469.333333-209.066667 469.333333-469.333333 469.333333z" fill="#EAA240" p-id="3874"></path><path d="M512 174.933333c-119.466667 0-213.333333 98.133333-213.333333 217.6 0 25.6 17.066667 42.666667 42.666666 42.666667s42.666667-17.066667 42.666667-42.666667c0-72.533333 59.733333-132.266667 128-132.266666 42.666667 0 81.066667 17.066667 106.666667 42.666666 17.066667 21.333333 25.6 46.933333 21.333333 76.8-4.266667 38.4-25.6 51.2-64 72.533334-46.933333 25.6-106.666667 59.733333-106.666667 162.133333 0 25.6 17.066667 42.666667 42.666667 42.666667s42.666667-17.066667 42.666667-42.666667c0-51.2 21.333333-64 64-89.6 38.4-21.333333 93.866667-55.466667 106.666666-136.533333 8.533333-55.466667-8.533333-106.666667-42.666666-145.066667-38.4-42.666667-102.4-68.266667-170.666667-68.266667z" fill="#EAA240" p-id="3875"></path><path d="M512 789.333333m-55.466667 0a55.466667 55.466667 0 1 0 110.933334 0 55.466667 55.466667 0 1 0-110.933334 0Z" fill="#EAA240" p-id="3876"></path></svg>