<?xml version="1.0" standalone="no"?><!DOCTYPE svg PUBLIC "-//W3C//DTD SVG 1.1//EN" "http://www.w3.org/Graphics/SVG/1.1/DTD/svg11.dtd"><svg t="1559188300949" class="icon" style="" viewBox="0 0 1024 1024" version="1.1" xmlns="http://www.w3.org/2000/svg" p-id="785" xmlns:xlink="http://www.w3.org/1999/xlink" width="200" height="200"><defs><style type="text/css"></style></defs><path d="M754.346667 230.968889l-260.551111 261.688889c-11.377778 11.377778-11.377778 28.444444 0 39.822222 5.688889 5.688889 12.515556 7.964444 20.48 7.964444s14.791111-3.413333 20.48-7.964444l260.551111-260.551111 65.991111 20.48L1024 127.431111l-95.573333-29.582222L898.844444 1.137778 733.866667 164.977778l20.48 65.991111z" fill="#EAA240" p-id="786"></path><path d="M1019.448889 483.555556c0-3.413333 0-6.826667-1.137778-9.102223 0-6.826667-1.137778-13.653333-2.275555-20.48l-1.137778-10.24c-1.137778-6.826667-2.275556-12.515556-3.413334-19.342222l-1.137777-10.24c-1.137778-6.826667-3.413333-14.791111-4.551111-21.617778 0-2.275556-1.137778-4.551111-1.137778-5.688889-2.275556-9.102222-4.551111-18.204444-7.964445-27.306666l-1.137777-5.688889c-2.275556-6.826667-4.551111-14.791111-7.964445-21.617778l-3.413333-7.964444c-2.275556-6.826667-5.688889-12.515556-7.964445-19.342223l-3.413333-6.826666c-3.413333-6.826667-6.826667-14.791111-11.377778-21.617778 0-1.137778-1.137778-1.137778-1.137778-2.275556l-42.097777 42.097778c29.582222 61.44 44.373333 128.568889 44.373333 195.697778 0 250.311111-202.524444 452.835556-452.835556 452.835556C259.413333 965.973333 56.888889 763.448889 56.888889 513.137778S259.413333 60.302222 509.724444 60.302222c69.404444 0 137.671111 15.928889 199.111112 46.648889L750.933333 64.853333c-7.964444-4.551111-17.066667-9.102222-25.031111-12.515555l-5.688889-2.275556c-6.826667-3.413333-13.653333-5.688889-20.48-9.102222l-6.826666-2.275556c-6.826667-3.413333-14.791111-5.688889-22.755556-7.964444l-5.688889-1.137778c-19.342222-5.688889-38.684444-11.377778-58.026666-14.791111-2.275556 0-3.413333-1.137778-5.688889-1.137778L576.853333 10.24l-6.826666-1.137778c-7.964444-1.137778-17.066667-1.137778-25.031111-2.275555h-5.688889c-10.24-1.137778-20.48-1.137778-30.72-1.137778C266.24 3.413333 56.888889 176.355556 9.102222 415.288889c-5.688889 31.857778-9.102222 64.853333-9.102222 97.848889 0 143.36 60.302222 281.031111 167.253333 377.742222 93.297778 85.333333 216.177778 133.12 342.471111 131.982222 251.448889 0 465.351111-183.182222 504.035556-431.217778 4.551111-26.168889 5.688889-52.337778 5.688889-78.506666 1.137778-10.24 0-20.48 0-29.582222z" fill="#EAA240" p-id="787"></path><path d="M679.253333 219.591111l-2.275555-1.137778-13.653334-7.964444-3.413333-2.275556c-5.688889-3.413333-12.515556-5.688889-18.204444-9.102222-5.688889-2.275556-12.515556-4.551111-18.204445-6.826667l-4.551111-1.137777c-5.688889-2.275556-10.24-3.413333-15.928889-4.551111l-4.551111-1.137778c-6.826667-1.137778-13.653333-3.413333-20.48-4.551111-6.826667-1.137778-12.515556-2.275556-19.342222-3.413334l-5.688889-1.137777-14.791111-1.137778h-5.688889c-6.826667 0-13.653333-1.137778-20.48-1.137778-186.595556 0-339.057778 151.324444-339.057778 339.057778 0 6.826667 0 13.653333 1.137778 20.48 7.964444 166.115556 136.533333 299.235556 301.511111 316.302222 11.377778 1.137778 22.755556 2.275556 34.133333 2.275556 186.595556 0 339.057778-151.324444 339.057778-339.057778 0-6.826667 0-13.653333-1.137778-20.48v-5.688889c0-5.688889-1.137778-10.24-1.137777-15.928889V466.488889c-2.275556-13.653333-4.551111-27.306667-7.964445-40.96 0-1.137778 0-1.137778-1.137778-2.275556-1.137778-5.688889-3.413333-11.377778-5.688888-17.066666l-1.137778-4.551111c-4.551111-12.515556-10.24-26.168889-15.928889-38.684445l-1.137778-1.137778c-2.275556-5.688889-5.688889-11.377778-9.102222-15.928889l-1.137778-2.275555L762.311111 386.844444c20.48 39.822222 30.72 83.057778 30.72 127.431112C793.031111 670.151111 666.737778 796.444444 510.862222 796.444444S228.693333 670.151111 228.693333 514.275556s126.293333-282.168889 282.168889-282.168889c44.373333 0 87.608889 10.24 127.431111 30.72l40.96-43.235556z" fill="#EAA240" p-id="788"></path><path d="M497.208889 401.635556l52.337778-52.337778-2.275556-1.137778c-4.551111-1.137778-7.964444-1.137778-12.515555-2.275556l-5.688889-1.137777c-6.826667-1.137778-12.515556-1.137778-19.342223-1.137778C416.426667 343.608889 341.333333 418.702222 341.333333 512s75.093333 168.391111 168.391111 168.391111c93.297778 0 168.391111-75.093333 168.391112-168.391111 0-5.688889 0-12.515556-1.137778-18.204444 0-2.275556 0-3.413333-1.137778-5.688889 0-4.551111-1.137778-9.102222-2.275556-13.653334v-1.137777l-53.475555 53.475555c-7.964444 55.751111-54.613333 96.711111-110.364445 96.711111-61.44 0-111.502222-50.062222-111.502222-111.502222 1.137778-55.751111 43.235556-103.537778 98.986667-110.364444z" fill="#EAA240" p-id="789"></path></svg>