<?xml version="1.0" standalone="no"?><!DOCTYPE svg PUBLIC "-//W3C//DTD SVG 1.1//EN" "http://www.w3.org/Graphics/SVG/1.1/DTD/svg11.dtd"><svg t="1559045314749" class="icon" style="" viewBox="0 0 1024 1024" version="1.1" xmlns="http://www.w3.org/2000/svg" p-id="2900" xmlns:xlink="http://www.w3.org/1999/xlink" width="220" height="220"><defs><style type="text/css"></style></defs><path d="M217.232045 449.434036l-1.660826-5.186116-1.319042-6.795776-0.929162-3.733021 0.019443-4.640694 0.020466-5.580089 0.019443-5.046946 1.63729-5.977132 1.704828-6.382361 2.177596-6.649444 2.952238-7.387247 3.89675-7.718799 5.475711-7.712659 0.021489-5.446036 0.555655-5.0449 0.831948-6.921643 2.382257-7.656377 2.183735-8.398274 1.728364-3.827165 1.99647-3.591805 2.569522-3.990894 2.769067-2.914376 0.020466-5.41329 0.021489-6.15314 0.028653-7.566326 1.647523-9.846252 1.657756-11.426237 2.942005-13.674441 4.019547-14.20656 2.988054-7.824199 2.958378-8.528234 3.221368-7.92346 3.865028-8.525164 3.935636-9.266038 4.539386-8.760524 5.077645-9.29469 6.42227-9.28855 2.945075-5.302773 3.176342-4.3951 6.861268-9.790994 7.031137-9.790994 8.03807-10.090822 8.578376-9.819646 9.315156-9.649777 9.720386-9.953699 11.743462-10.715039 7.487531-6.495948 9.06854-6.993275 9.201569-6.219655 9.975189-5.948479 9.56996-5.278213 10.774391-4.330632 11.45182-5.437849 11.380188-3.689019 11.379165-3.791349 12.253068-3.787256 12.251022-2.914376 12.919241-2.338255 13.053294-2.069125 12.853749-1.701758 12.917194-1.700735 13.72049-0.687662 13.045107 0.047072 13.518898 0.051165 13.986549 0.052189 13.510712 1.729387 13.57825 1.663896 13.847379 1.530866 12.83226 3.107781 13.57211 2.975774 12.730952 3.343141 13.9405 3.78214 12.761652 4.586458 12.218276 5.222955 13.025665 5.496178 11.916401 6.02932 11.537777 6.66684 11.30651 7.370875 9.794064 6.795776 4.491291 3.883447 4.761444 2.809999 9.049097 7.765871 7.642051 7.458879 7.568373 7.728008 7.433296 8.568143 6.085602 8.226359 7.235798 8.566096 5.074575 9.165754 5.115508 8.156774 5.442966 9.43386 4.476965 8.28878 7.602142 17.446347 3.730974 9.023514 2.89391 8.383948 2.892887 9.055237 2.591011 8.516977 1.856277 7.30129 2.321882 8.683776 4.111644 15.414061 2.607384 13.458523 1.669012 13.019525 1.438769 10.497075 2.292206 15.980973 0.531096 2.521426 1.871627 2.932796 5.012154 8.256034 3.210112 5.560646 2.867304 5.894244 3.678786 6.233981 3.200902 7.477298 2.053776 7.740288 2.255367 8.348132 1.716084 8.645914 0.788969 4.273327 0.657986 5.182023-0.019443 4.504594-0.690732 4.536316-0.021489 5.614881-1.364067 5.409197-2.459005 10.513448-2.77623 5.303796-2.041496 5.978155-0.005117 1.444908 0.934279 1.855254 2.743484 4.41352 11.903098 17.72878 9.43693 13.320377 4.470825 8.924253 6.081509 9.742898 5.273097 10.643408 6.078439 11.453866 6.071276 12.799514 6.836709 14.481829 3.835352 8.9263 3.53143 8.654101 3.060709 9.18929 2.995217 8.250918 2.25639 8.650007 2.322905 8.112772 2.90312 15.84692 2.289136 16.213263 1.560542 14.362102-0.027629 7.836479-0.022513 6.387477-0.022513 5.984295-1.101077 7.192819-1.592264 12.335956-2.196015 11.150968-3.332908 10.076496-1.222851 4.129041-2.304486 4.937452-1.966795 3.420913-2.569522 4.261047-2.294252 2.648316-2.907213 3.451612-2.566452 2.784416-2.764973 2.376117-3.302209 1.431605-2.963495 1.470491-2.425236 0.794086-2.116197-0.008186-1.579985-0.004093-2.387373-0.817622-4.530177-2.26867-2.077312-1.451048-2.14792-1.626034-2.38021-2.157129-2.375094-2.365884-3.949962-4.419659-4.684696-6.237051-3.676739-6.435573-3.680832-5.155417-3.574409-5.999644-5.037736-10.6782-5.675256-11.084453-0.669242-0.370437-0.941442-0.004093-2.358721 1.706875-1.357927 2.920516-2.232854 3.589758-3.942799 10.744715-5.906523 15.281031-7.597025 18.297738-5.686513 9.188266-5.984295 9.529027-7.067976 10.734482-7.503904 10.497075-3.851725 4.759397-4.659113 5.158487-10.69662 10.486842 0.938372 0.910743 1.437745 1.481747 5.301749 3.219321 22.152533 10.704806 9.660011 5.481851 9.195429 5.348821 9.121751 6.691399 8.111748 6.959505 3.953032 3.041266 2.944052 3.604084 3.012613 4.145413 2.536776 4.51892 1.333368 3.737114 1.662873 4.54348 0.661056 3.835352 0.788969 4.50664-0.817622 3.059686-0.010233 3.057639-0.686638 3.188622-1.691525 2.921539-0.678452 2.28095-1.49198 2.75167-4.054339 5.430686-3.715625 4.393054-2.904143 3.315512-2.428306 2.378164-6.136767 4.485151-6.941086 3.841491-7.40976 3.703345-7.879458 3.569292-8.890484 3.394307-4.716418 1.464351-4.240581 1.159406-10.227945 2.352581-10.635221 2.246157-10.636245 2.214435-11.570523 1.803066-11.972683 0.49528-12.244882 1.431605-12.105712-0.044002-12.775978-0.048095-13.111622-0.048095-13.71435-0.857531-12.772908-1.258667-13.712303-1.89721-13.644765-1.497097-14.382569-2.070148-13.907755-3.51608-13.576203-2.705622-13.500479-3.883447-13.836123-4.996804-13.568017-4.183276-7.122211-2.378164-6.377244-2.312672-4.028757-1.598404-3.966335-0.787946-5.178953-0.01842-6.118348-0.023536-13.044084-0.98749-6.623861-0.698918-8.501628-0.974188-5.464455 4.889357-7.483438 4.613064-10.104125 4.904707-11.18883 6.079462-6.803963 3.302209-7.068999 2.596128-15.692401 6.331195-8.514931 2.122337-8.918114 2.352581-12.385075 2.342348-7.735172 0.64366-8.207939 0.641613-8.544607 0.911766-9.954723 0.363274-9.54847-0.033769-9.954723-0.035816-21.148669-0.079818-22.961968-0.48607-22.25077-2.367931-11.290137-1.62501-10.890025-1.65264-10.617825-1.616824-10.617825-2.194992-9.840112-3.195785-9.843182-2.322905-8.862855-3.598968-8.394181-3.359514-7.785314-3.759627-6.776334-4.129041-6.77531-4.967128-2.27481-2.39249-3.016707-2.90619-2.27788-2.565429-2.073218-2.930749-1.871627-2.931772-1.469468-2.931772-2.095731-6.225795-0.76134-3.233648-0.926092-3.566222 0.01228-3.327792 0.955768-3.730974 0.013303-3.729951 0.787946-3.728928 0.010233-2.220574 0.019443-5.212722 0.385786-3.999081 1.76418-4.500501 1.496074-4.501524 2.711761-5.435803 1.957585-2.146896 1.620917-2.378164 4.25593-5.164626 3.371794-2.64013 3.168156-1.87265 2.933819-2.342348 4.678556-1.465374 3.707438-2.238994 4.649903-2.366907 5.317099-1.596358 5.317099-1.595334 6.123464-1.287319 5.854335-0.753153 6.930853-0.915859 7.467065-0.50756 1.983167-0.667196 0.405229 0 0.944512-0.803295 0.00307-0.905626-1.338485-1.855254-3.991917-1.898233-9.920954-8.676613-6.638187-5.337565-7.707542-6.789637-7.77508-7.628748-8.100492-9.713222-9.237385-10.926864-3.475148-5.89629-4.616134-6.101975-3.943822-7.077186-3.535523-7.746428-4.814656-7.314593-3.12927-8.382924-3.702322-8.383948-3.696182-9.327436-2.724041-8.888438-2.51324-11.072173-0.806365-0.405229-0.773619-0.004093-0.401136-0.776689-0.942465-0.004093-1.583055 0.769526-0.808412 0.401136-1.082658 1.847068-0.412392 2.284019-0.814552 1.981121-1.425466 3.321652-4.602831 8.088212-2.372024 4.935406-3.747347 4.219091-4.019547 5.16258-4.393054 5.701862-4.659113 5.024433-5.465478 4.89038-5.095042 4.621251-5.562692 3.609201-6.132674 3.811816-5.860475 2.264577-6.930853 1.688455-6.795776 0.61603-0.672312-0.002047-0.940418-0.004093-1.546216-0.647753-1.201361-2.65855-2.01182-1.352811-2.598174-6.39771-1.600451-3.435239-1.730411-4.950755-1.428535-5.1503-0.75213-5.078669-2.111081-11.576663-0.781806-6.794753 0.024559-6.891967 0.057305-15.433504 0.868787-16.606213 1.37737-8.504698 1.611707-8.767688 1.481747-9.444093 2.586918-8.727779 2.927679-10.145058 2.998287-9.807367 4.003174-10.07138 3.767813-9.705036 5.180999-9.829879 4.882194-10.606569 5.887081-9.931187 6.92983-10.736529 7.063883-9.68764 7.370875-10.732435 6.147-7.411807 7.867178-8.641821 8.268314-8.580422 3.848655-4.119831 4.690836-4.657067 6.779404-5.824659 6.950296-5.958712 11.332093-10.04375 8.565073-6.223748L217.232045 449.434036z" p-id="2901" fill="#b2cef8"></path></svg>