<?xml version="1.0" standalone="no"?><!DOCTYPE svg PUBLIC "-//W3C//DTD SVG 1.1//EN" "http://www.w3.org/Graphics/SVG/1.1/DTD/svg11.dtd"><svg t="1558865591695" class="icon" style="" viewBox="0 0 1024 1024" version="1.1" xmlns="http://www.w3.org/2000/svg" p-id="17192" xmlns:xlink="http://www.w3.org/1999/xlink" width="220" height="220"><defs><style type="text/css"></style></defs><path d="M930.6112 955.665067H93.422933c-18.773333 0-34.133333-15.36-34.133333-34.133334s15.36-34.133333 34.133333-34.133333h837.188267c18.773333 0 34.133333 15.36 34.133333 34.133333s-15.36 34.133333-34.133333 34.133334zM204.8 819.0976h68.266667V402.602667H204.8v416.494933zM153.838933 317.303467l173.090134-118.749867 175.2064-120.2176a17.5104 17.5104 0 0 1 19.729066 0l175.240534 120.2176 173.090133 118.749867c3.652267 2.525867 1.877333 8.260267-2.56 8.260266H156.398933c-4.437333 0-6.2464-5.7344-2.56-8.260266zM614.4 819.0976h68.266667V402.602667h-68.266667v416.494933z m-136.533333-416.494933h68.266666v416.4608h-68.266666V402.602667z m-136.533334 416.4608h68.266667V402.568533h-68.266667v416.494934z m409.6 0h68.266667V402.568533h-68.266667v416.494934z m187.733334 0H887.466667V402.602667h97.3824c38.4 0 53.794133-49.595733 22.1184-71.338667l-195.515734-134.109867L534.1184 6.8608a39.082667 39.082667 0 0 0-44.2368 0L212.548267 197.154133 17.066667 331.264c-31.675733 21.742933-16.315733 71.338667 22.1184 71.338667H136.533333v416.4608H85.333333c-46.933333 0-85.333333 46.114133-85.333333 102.468266C0 977.885867 38.4 1024 85.333333 1024h853.333334c46.933333 0 85.333333-46.114133 85.333333-102.468267 0-56.354133-38.4-102.468267-85.333333-102.468266z" fill="#98d4f5" p-id="17193"></path></svg>