<?xml version="1.0" standalone="no"?><!DOCTYPE svg PUBLIC "-//W3C//DTD SVG 1.1//EN" "http://www.w3.org/Graphics/SVG/1.1/DTD/svg11.dtd"><svg t="1558962445203" class="icon" style="" viewBox="0 0 1024 1024" version="1.1" xmlns="http://www.w3.org/2000/svg" p-id="18661" xmlns:xlink="http://www.w3.org/1999/xlink" width="220" height="220"><defs><style type="text/css"></style></defs><path d="M505.297455 82.106182a418.909091 418.909091 0 1 0 418.90909 418.909091 419.234909 419.234909 0 0 0-418.90909-418.909091zM707.490909 431.802182L466.850909 674.909091h-0.232727v0.232727a30.72 30.72 0 0 1-6.516364 4.282182 26.205091 26.205091 0 0 1-3.165091 2.048 30.347636 30.347636 0 0 1-11.217454 2.187636 29.742545 29.742545 0 0 1-11.357091-2.234181 39.424 39.424 0 0 1-3.304727-2.141091 28.904727 28.904727 0 0 1-6.469819-4.282182v-0.232727h-0.232727l-118.737454-121.576728a30.021818 30.021818 0 1 1 43.10109-41.890909l96.954182 99.607273 219.042909-221.416727a30.021818 30.021818 0 1 1 42.775273 42.309818z m0 0" p-id="18662" fill="#bfbfbf"></path></svg>