<?xml version="1.0" standalone="no"?><!DOCTYPE svg PUBLIC "-//W3C//DTD SVG 1.1//EN" "http://www.w3.org/Graphics/SVG/1.1/DTD/svg11.dtd"><svg t="1559206450737" class="icon" style="" viewBox="0 0 1024 1024" version="1.1" xmlns="http://www.w3.org/2000/svg" p-id="6742" xmlns:xlink="http://www.w3.org/1999/xlink" width="200" height="200"><defs><style type="text/css"></style></defs><path d="M830.214459 193.318914C748.719376 111.827925 636.211976 61.419861 512.011256 61.419861c-124.192533 0-236.715283 50.408063-318.206272 131.899052-81.552387 81.552387-132.0065 194.240913-132.0065 318.692343 0 124.44836 50.454112 237.131769 132.0065 318.684156 81.490989 81.490989 194.005552 131.904169 318.206272 131.904169s236.70812-50.41318 318.203202-131.904169c81.549318-81.552387 132.010593-194.235796 132.010593-318.684156C962.225051 387.559826 911.764799 274.871301 830.214459 193.318914zM757.740844 406.822542 468.515626 692.043562c-19.706831 19.549242-50.572816 19.549242-70.27453 0L266.443351 562.40397c-20.284999-19.816325-20.931728-52.788274-1.375324-73.4038 19.34458-20.871353 51.442626-21.541619 71.588455-1.458211l96.499821 95.067192 254.235308-250.653737c20.154016-20.076244 52.241828-19.413142 71.732741 1.473561C778.468934 354.036315 777.820158 387.008264 757.740844 406.822542z" p-id="6743" fill="#dbdbdb"></path></svg>