<?xml version="1.0" standalone="no"?><!DOCTYPE svg PUBLIC "-//W3C//DTD SVG 1.1//EN" "http://www.w3.org/Graphics/SVG/1.1/DTD/svg11.dtd"><svg t="1559184668189" class="icon" style="" viewBox="0 0 1092 1024" version="1.1" xmlns="http://www.w3.org/2000/svg" p-id="5444" xmlns:xlink="http://www.w3.org/1999/xlink" width="234.609375" height="220"><defs><style type="text/css"></style></defs><path d="M1074.583337 453.896872c-76.39218 86.577804-213.898105 234.269353-213.898105 234.269353s20.371248 157.877173 35.649684 269.919037c5.092812 56.020932-35.649684 81.484992-86.577804 56.020932-91.670616-45.835308-234.269353-112.041865-264.826226-127.3203-30.556872 15.278436-173.155609 81.484992-264.826225 122.227488-50.92812 20.371248-91.670616 0-86.577804-56.020932 10.185624-106.949052 35.649684-269.919037 35.649684-269.919037s-137.505925-142.598737-213.898105-234.269353c-25.46406-30.556872-10.185624-76.39218 45.835308-86.577805 112.041865-20.371248 285.197473-50.92812 285.197474-50.92812S432.889022 153.420962 494.002766 51.564722c30.556872-61.113744 56.020932-50.92812 61.113745-50.92812 10.185624 5.092812 25.46406 15.278436 45.835308 50.92812 61.113744 101.85624 152.784361 259.733413 152.78436 259.733413l280.104662 50.92812c50.92812 10.185624 66.206556 56.020932 40.742496 91.670617z" p-id="5445" fill="#515151"></path></svg>