<?xml version="1.0" standalone="no"?><!DOCTYPE svg PUBLIC "-//W3C//DTD SVG 1.1//EN" "http://www.w3.org/Graphics/SVG/1.1/DTD/svg11.dtd"><svg t="1558865616418" class="icon" style="" viewBox="0 0 1024 1024" version="1.1" xmlns="http://www.w3.org/2000/svg" p-id="18032" xmlns:xlink="http://www.w3.org/1999/xlink" width="220" height="220"><defs><style type="text/css"></style></defs><path d="M511.964313 77.940197a434.024117 434.024117 0 1 1-433.952743 434.09549 434.523733 434.523733 0 0 1 433.952743-434.09549m0-77.940197a511.964313 511.964313 0 1 0 512.035687 512.035687A511.964313 511.964313 0 0 0 511.964313 0z" p-id="18033" fill="#98d4f5"></path><path d="M614.10023 661.706559a38.470482 38.470482 0 0 1-21.412142-6.56639l-102.207291-68.090612a39.041472 39.041472 0 0 1-17.415208-32.403708V383.991078a38.970098 38.970098 0 1 1 77.940196 0v149.884994l84.863456 56.45668a38.970098 38.970098 0 0 1-21.412142 71.373807z" p-id="18034" fill="#98d4f5"></path><path d="M511.964313 245.169025a38.970098 38.970098 0 0 1-38.970098-38.970098v-42.824284a38.970098 38.970098 0 1 1 77.940196 0v42.824284a38.898724 38.898724 0 0 1-38.970098 38.970098z" p-id="18035" fill="#98d4f5"></path><path d="M206.2703 550.791664h-42.824283a38.970098 38.970098 0 0 1 0-77.940197h42.824283a38.970098 38.970098 0 0 1 0 77.940197z" p-id="18036" fill="#98d4f5"></path><path d="M511.964313 899.381334a38.970098 38.970098 0 0 1-38.970098-38.970098v-42.824284a38.970098 38.970098 0 1 1 77.940196 0v42.824284a38.970098 38.970098 0 0 1-38.970098 38.970098z" p-id="18037" fill="#98d4f5"></path><path d="M860.48261 550.791664h-42.824284a38.970098 38.970098 0 0 1 0-77.940197h42.824284a38.970098 38.970098 0 0 1 0 77.940197z" p-id="18038" fill="#98d4f5"></path></svg>