<?xml version="1.0" standalone="no"?><!DOCTYPE svg PUBLIC "-//W3C//DTD SVG 1.1//EN" "http://www.w3.org/Graphics/SVG/1.1/DTD/svg11.dtd"><svg t="1559188687560" class="icon" style="" viewBox="0 0 1024 1024" version="1.1" xmlns="http://www.w3.org/2000/svg" p-id="19764" xmlns:xlink="http://www.w3.org/1999/xlink" width="200" height="200"><defs><style type="text/css"></style></defs><path d="M512 232.6528c5.2736 0 10.5728 1.0752 15.488 3.2512l409.6 180.7104c19.4048 8.5504 28.1856 31.232 19.6352 50.6368-8.5504 19.3792-31.2576 28.1856-50.6368 19.6352L512 313.0368 117.888 486.8864c-19.4048 8.5504-42.0864-0.256-50.6368-19.6352-8.5504-19.4048 0.2304-42.0864 19.6352-50.6368l409.6-180.7104C501.4272 233.7536 506.7264 232.6528 512 232.6528z" p-id="19765" fill="#8a8a8a"></path><path d="M512 533.8368c5.2736 0 10.5728 1.0752 15.488 3.2512l409.6 180.7104c19.4048 8.5504 28.1856 31.232 19.6352 50.6368s-31.2576 28.1856-50.6368 19.6352L512 614.2208 117.888 788.0704c-19.4048 8.5504-42.0864-0.2304-50.6368-19.6352-8.5504-19.4048 0.2304-42.0864 19.6352-50.6368l409.6-180.7104C501.4272 534.912 506.7264 533.8368 512 533.8368z" p-id="19766" fill="#8a8a8a"></path></svg>