<?xml version="1.0" standalone="no"?><!DOCTYPE svg PUBLIC "-//W3C//DTD SVG 1.1//EN" "http://www.w3.org/Graphics/SVG/1.1/DTD/svg11.dtd"><svg t="1559200375459" class="icon" style="" viewBox="0 0 1024 1024" version="1.1" xmlns="http://www.w3.org/2000/svg" p-id="14095" xmlns:xlink="http://www.w3.org/1999/xlink" width="200" height="200"><defs><style type="text/css"></style></defs><path d="M233.1 921.1c-17.1 0-37.2-9.9-37.2-37.9V648.7c0-28 20.1-38 37.2-38 17.2 0 37.2 10 37.2 38v234.5c0 27.9-19.9 37.9-37.2 37.9z m581-0.1c-17.1 0-37.1-10-37.1-37.9V480.2c0-28 20.1-38 37.2-38 10.4 0 20.4 3.9 27 10.5 6.6 6.6 10.1 16.1 10.1 27.4V883c0 28-20 38-37.2 38z m-290.5-0.1c-17.1 0-37.1-9.9-37.1-38V614c0-27.8 20-37.7 37.1-37.7 17.2 0 37.3 9.9 37.3 37.7v269c0 28-20.1 37.9-37.3 37.9zM251.7 520.3c-10 0-20.1-0.3-30.1-0.8-25.4-1.2-36.5-23.4-36-43.4 0.1-6 2.3-35.9 32.3-35.9 11.5 0.6 20.7 0.8 29.8 0.8 179.1 0 360.6-85 497.9-233.4l23.6-25.3h-96.6c-26.2 0-35.5-21.3-35.5-39.7 0-18.3 9.3-39.6 35.5-39.6h173.9c10.9 0 21.3 5.6 28.7 15.1 5.5 5.7 8.6 23.9 8.5 37.6v189c0 28-20 37.9-37.1 37.9-17.2 0-37.2-9.9-37.2-37.9V251l-25.9 26.4C632.7 431.7 438.9 520.3 251.7 520.3z" p-id="14096" fill="#006CFF"></path></svg>