<?xml version="1.0" standalone="no"?><!DOCTYPE svg PUBLIC "-//W3C//DTD SVG 1.1//EN" "http://www.w3.org/Graphics/SVG/1.1/DTD/svg11.dtd"><svg t="1558858335307" class="icon" style="" viewBox="0 0 1024 1024" version="1.1" xmlns="http://www.w3.org/2000/svg" p-id="20297" xmlns:xlink="http://www.w3.org/1999/xlink" width="220" height="220"><defs><style type="text/css"></style></defs><path d="M512 1024C229.6832 1024 0 794.3168 0 512S229.6832 0 512 0s512 229.6832 512 512S794.3168 1024 512 1024L512 1024M512 73.147733C269.994667 73.147733 73.147733 269.994667 73.147733 512S269.994667 950.852267 512 950.852267 950.852267 754.005333 950.852267 512 754.005333 73.147733 512 73.147733L512 73.147733M512 73.147733" p-id="20298" fill="#ffffff"></path><path d="M512.3072 878.114133c-30.276267 0-54.852267-24.576-54.852267-54.818133 0-30.3104 24.576-54.852267 54.852267-54.852267 30.276267 0 54.852267 24.576 54.852267 54.852267C567.159467 853.538133 542.583467 878.114133 512.3072 878.114133L512.3072 878.114133 512.3072 878.114133z" p-id="20299" fill="#ffffff"></path><path d="M613.546667 504.183467c-31.812267 31.812267-64.648533 64.648533-64.648533 94.139733l0 61.883733c0 20.1728-16.384 36.5568-36.590933 36.5568-20.1728 0-36.5568-16.384-36.5568-36.5568l0-61.883733c0-59.835733 45.704533-105.540267 86.084267-145.851733 29.5936-29.5936 60.177067-60.177067 60.177067-84.5824 0-60.962133-49.220267-110.523733-109.704533-110.523733-61.508267 0-109.704533 47.479467-109.704533 108.066133 0 20.1728-16.384 36.5568-36.590933 36.5568-20.1728 0-36.5568-16.384-36.5568-36.5568 0-99.9424 82.0224-181.248 182.852267-181.248 100.829867 0 182.852267 82.397867 182.852267 183.7056C695.159467 422.6048 653.653333 464.110933 613.546667 504.183467L613.546667 504.183467 613.546667 504.183467z" p-id="20300" fill="#ffffff"></path><path d="M613.546667 504.183467" p-id="20301" fill="#ffffff"></path></svg>