<?xml version="1.0" standalone="no"?><!DOCTYPE svg PUBLIC "-//W3C//DTD SVG 1.1//EN" "http://www.w3.org/Graphics/SVG/1.1/DTD/svg11.dtd"><svg t="1559218373617" class="icon" style="" viewBox="0 0 1024 1024" version="1.1" xmlns="http://www.w3.org/2000/svg" p-id="7047" xmlns:xlink="http://www.w3.org/1999/xlink" width="200" height="200"><defs><style type="text/css"></style></defs><path d="M921.990187 101.488439c-24.976858-24.977881-57.71447-37.467333-90.453105-37.467333L191.90317 64.021106c-32.737612 0-65.475224 12.489452-90.454128 37.467333-24.977881 24.978904-37.467333 57.716516-37.467333 90.454128l0 639.633912c0 32.737612 12.489452 65.475224 37.467333 90.454128 24.978904 24.977881 57.716516 37.467333 90.454128 37.467333l639.634936 0c32.737612 0 65.475224-12.489452 90.453105-37.467333 24.978904-24.977881 37.468356-57.715493 37.468356-90.454128L959.459566 191.942567C959.458543 159.203932 946.969091 126.46632 921.990187 101.488439zM447.732789 191.979406c84.767616 0 153.497976 74.450642 153.497976 166.290327 0 91.838661-68.730361 166.288281-153.497976 166.288281-84.769662 0-153.497976-74.449619-153.497976-166.288281C294.233789 266.431072 362.963127 191.979406 447.732789 191.979406zM191.902146 831.553966c0-127.167285 114.548896-230.246965 255.82962-230.246965 141.280724 0 255.82962 103.07968 255.82962 230.246965L191.902146 831.553966zM831.508429 694.496427 694.45089 694.496427 694.45089 648.809899l137.058562 0L831.509453 694.496427zM831.508429 557.436842 648.763338 557.436842l0-45.685505 182.745091 0L831.508429 557.436842zM831.508429 420.379303 694.45089 420.379303l0-45.686529 137.058562 0L831.509453 420.379303z" fill="#76a8f0" p-id="7048"></path></svg>