<?xml version="1.0" standalone="no"?><!DOCTYPE svg PUBLIC "-//W3C//DTD SVG 1.1//EN" "http://www.w3.org/Graphics/SVG/1.1/DTD/svg11.dtd"><svg t="1558857940645" class="icon" style="" viewBox="0 0 1024 1024" version="1.1" xmlns="http://www.w3.org/2000/svg" p-id="14027" xmlns:xlink="http://www.w3.org/1999/xlink" width="270" height="270"><defs><style type="text/css"></style></defs><path d="M810.666667 128h-42.666667V42.666667h-85.333333v85.333333H341.333333V42.666667h-85.333333v85.333333h-42.666667c-47.146667 0-85.333333 38.186667-85.333333 85.333333v597.333334c0 47.146667 38.186667 85.333333 85.333333 85.333333h597.333334c47.146667 0 85.333333-38.186667 85.333333-85.333333V213.333333c0-47.146667-38.186667-85.333333-85.333333-85.333333z m-298.666667 128c70.613333 0 128 57.386667 128 128 0 70.826667-57.386667 128-128 128s-128-57.173333-128-128c0-70.613333 57.386667-128 128-128z m256 512H256v-42.666667c0-85.333333 170.666667-132.266667 256-132.266666S768 640 768 725.333333v42.666667z" p-id="14028" fill="#31799f"></path></svg>