<?xml version="1.0" standalone="no"?><!DOCTYPE svg PUBLIC "-//W3C//DTD SVG 1.1//EN" "http://www.w3.org/Graphics/SVG/1.1/DTD/svg11.dtd"><svg t="1559185324821" class="icon" style="" viewBox="0 0 1433 1024" version="1.1" xmlns="http://www.w3.org/2000/svg" p-id="7376" xmlns:xlink="http://www.w3.org/1999/xlink" width="307.87109375" height="220"><defs><style type="text/css"></style></defs><path d="M716.8 1.3312C204.8 1.3312 0 512 0 512s204.8 510.6688 716.8 510.6688S1433.6 512 1433.6 512 1228.8 1.3312 716.8 1.3312z m0 817.152c-169.5744 0-307.2-137.216-307.2-306.4832a306.7904 306.7904 0 0 1 307.2-306.3808c169.5744 0 307.2 137.216 307.2 306.3808a306.7904 306.7904 0 0 1-307.2 306.3808zM870.4 512c0 84.5824-68.8128 153.1904-153.6 153.1904S563.2 596.5824 563.2 512 632.0128 358.8096 716.8 358.8096 870.4 427.4176 870.4 512z" fill="#515151" p-id="7377"></path></svg>