<?xml version="1.0" standalone="no"?><!DOCTYPE svg PUBLIC "-//W3C//DTD SVG 1.1//EN" "http://www.w3.org/Graphics/SVG/1.1/DTD/svg11.dtd"><svg t="1559188008709" class="icon" style="" viewBox="0 0 1024 1024" version="1.1" xmlns="http://www.w3.org/2000/svg" p-id="23181" xmlns:xlink="http://www.w3.org/1999/xlink" width="260" height="260"><defs><style type="text/css"></style></defs><path d="M511.982604 800.383036c-246.172679 0-445.7399-277.985222-445.7399-288.383036 0-10.397814 199.567221-288.383036 445.7399-288.383036 246.175749 0 448.952059 290.462394 445.73683 288.383036C954.504206 509.920642 758.157329 800.383036 511.982604 800.383036zM510.207168 315.849598c-104.4724 0-189.161221 85.848227-189.161221 191.744046 0 105.901958 84.688821 191.747115 189.161221 191.747115 104.46933 0 189.158151-85.845157 189.158151-191.747115C699.365318 401.697825 614.676497 315.849598 510.207168 315.849598zM509.197164 591.724763c-49.427736 0-89.493244-40.616046-89.493244-90.720188 0-50.099025 40.065508-90.715071 89.493244-90.715071 49.422619 0 89.493244 40.616046 89.493244 90.715071C598.690408 551.107693 558.619784 591.724763 509.197164 591.724763z" p-id="23182" fill="#006CFF"></path></svg>