<?xml version="1.0" standalone="no"?><!DOCTYPE svg PUBLIC "-//W3C//DTD SVG 1.1//EN" "http://www.w3.org/Graphics/SVG/1.1/DTD/svg11.dtd"><svg t="1559029711293" class="icon" style="" viewBox="0 0 1024 1024" version="1.1" xmlns="http://www.w3.org/2000/svg" p-id="7273" xmlns:xlink="http://www.w3.org/1999/xlink" width="200" height="200"><defs><style type="text/css"></style></defs><path d="M511.3 69C265.8 69 66.7 268.1 66.7 513.6c0 245.5 199.1 444.6 444.6 444.6s444.6-199 444.6-444.6C955.9 268.1 756.8 69 511.3 69z m0 849.4c-223.5 0-404.8-181.2-404.8-404.8 0-223.6 181.2-404.8 404.8-404.8C734.8 108.8 916 290 916 513.6c0 223.5-181.2 404.8-404.7 404.8z m0 0" p-id="7274" fill="#006CFF"></path><path d="M669.9 404.8c0.2 2.4 0.7 4.7 0.7 7.2 0 48.2-39.1 87.3-87.3 87.3-48.3 0-87.4-39.1-87.4-87.3 0-43.6 32-79.4 73.7-86-18.5-6.1-37.8-10.2-58.3-10.2-103.2 0-186.9 83.7-186.9 186.9s83.7 186.9 186.9 186.9 186.9-83.7 186.9-186.9c0-36.1-10.7-69.4-28.3-97.9z m0 0" p-id="7275" fill="#006CFF"></path></svg>